<svg width="141" height="130" viewBox="0 0 141 130" fill="none" xmlns="http://www.w3.org/2000/svg">
<path opacity="0.5" d="M141 21.9524H0V107.558H141V21.9524Z" fill="url(#paint0_linear)"/>
<path d="M139.766 23.4243H1.23401V106.085H139.766V23.4243Z" fill="white"/>
<path d="M79.6657 36.8197H7.57903V39.2877H79.6657V36.8197Z" fill="#F5F5F5"/>
<path opacity="0.5" d="M43.5332 42.2232C45.8359 42.2232 47.7026 40.3565 47.7026 38.0537C47.7026 35.751 45.8359 33.8843 43.5332 33.8843C41.2304 33.8843 39.3637 35.751 39.3637 38.0537C39.3637 40.3565 41.2304 42.2232 43.5332 42.2232Z" fill="url(#paint1_linear)"/>
<path opacity="0.5" d="M21.3974 53.4563C23.7001 53.4563 25.5669 51.5896 25.5669 49.2868C25.5669 46.9841 23.7001 45.1174 21.3974 45.1174C19.0947 45.1174 17.2279 46.9841 17.2279 49.2868C17.2279 51.5896 19.0947 53.4563 21.3974 53.4563Z" fill="url(#paint2_linear)"/>
<path opacity="0.5" d="M68.6424 64.8545C70.9451 64.8545 72.8119 62.9878 72.8119 60.6851C72.8119 58.3824 70.9451 56.5156 68.6424 56.5156C66.3397 56.5156 64.473 58.3824 64.473 60.6851C64.473 62.9878 66.3397 64.8545 68.6424 64.8545Z" fill="url(#paint3_linear)"/>
<path opacity="0.5" d="M35.1084 76.0876C37.4111 76.0876 39.2778 74.2209 39.2778 71.9182C39.2778 69.6154 37.4111 67.7487 35.1084 67.7487C32.8056 67.7487 30.9389 69.6154 30.9389 71.9182C30.9389 74.2209 32.8056 76.0876 35.1084 76.0876Z" fill="url(#paint4_linear)"/>
<path opacity="0.5" d="M13.4682 87.3207C15.7709 87.3207 17.6376 85.454 17.6376 83.1513C17.6376 80.8485 15.7709 78.9818 13.4682 78.9818C11.1654 78.9818 9.29871 80.8485 9.29871 83.1513C9.29871 85.454 11.1654 87.3207 13.4682 87.3207Z" fill="url(#paint5_linear)"/>
<path opacity="0.5" d="M57.2441 98.5538C59.5469 98.5538 61.4136 96.6871 61.4136 94.3844C61.4136 92.0816 59.5469 90.2149 57.2441 90.2149C54.9414 90.2149 53.0747 92.0816 53.0747 94.3844C53.0747 96.6871 54.9414 98.5538 57.2441 98.5538Z" fill="url(#paint6_linear)"/>
<path opacity="0.5" d="M43.5332 41.2254C45.2848 41.2254 46.7049 39.8054 46.7049 38.0537C46.7049 36.302 45.2848 34.882 43.5332 34.882C41.7815 34.882 40.3615 36.302 40.3615 38.0537C40.3615 39.8054 41.7815 41.2254 43.5332 41.2254Z" fill="#5041EB"/>
<path d="M79.6657 48.0991H7.57903V50.567H79.6657V48.0991Z" fill="#F5F5F5"/>
<path opacity="0.5" d="M21.3264 52.5048C23.078 52.5048 24.498 51.0848 24.498 49.3331C24.498 47.5814 23.078 46.1614 21.3264 46.1614C19.5747 46.1614 18.1547 47.5814 18.1547 49.3331C18.1547 51.0848 19.5747 52.5048 21.3264 52.5048Z" fill="#5041EB"/>
<path d="M79.6657 59.3801H7.57903V61.848H79.6657V59.3801Z" fill="#F5F5F5"/>
<path d="M68.5615 63.7858C70.3131 63.7858 71.7331 62.3658 71.7331 60.6141C71.7331 58.8624 70.3131 57.4424 68.5615 57.4424C66.8098 57.4424 65.3898 58.8624 65.3898 60.6141C65.3898 62.3658 66.8098 63.7858 68.5615 63.7858Z" fill="#5041EB"/>
<path d="M79.6657 70.6594H7.57903V73.1274H79.6657V70.6594Z" fill="#F5F5F5"/>
<path d="M35.0737 75.0651C36.8253 75.0651 38.2454 73.6451 38.2454 71.8934C38.2454 70.1417 36.8253 68.7217 35.0737 68.7217C33.322 68.7217 31.902 70.1417 31.902 71.8934C31.902 73.6451 33.322 75.0651 35.0737 75.0651Z" fill="#5041EB"/>
<path d="M79.6657 81.9404H7.57903V84.4084H79.6657V81.9404Z" fill="#F5F5F5"/>
<path opacity="0.5" d="M13.3954 86.3461C15.1471 86.3461 16.5671 84.9261 16.5671 83.1744C16.5671 81.4227 15.1471 80.0027 13.3954 80.0027C11.6438 80.0027 10.2238 81.4227 10.2238 83.1744C10.2238 84.9261 11.6438 86.3461 13.3954 86.3461Z" fill="#5041EB"/>
<path d="M79.6657 93.2197H7.57903V95.6877H79.6657V93.2197Z" fill="#F5F5F5"/>
<path d="M57.2821 97.6254C59.0338 97.6254 60.4538 96.2054 60.4538 94.4537C60.4538 92.7021 59.0338 91.282 57.2821 91.282C55.5305 91.282 54.1104 92.7021 54.1104 94.4537C54.1104 96.2054 55.5305 97.6254 57.2821 97.6254Z" fill="#5041EB"/>
<path opacity="0.5" d="M100.99 67.1854H89.7111V74.8404H100.99V67.1854Z" fill="url(#paint7_linear)"/>
<path opacity="0.5" d="M116.148 67.1854H104.869V74.8404H116.148V67.1854Z" fill="url(#paint8_linear)"/>
<path opacity="0.5" d="M131.307 67.1854H120.027V74.8404H131.307V67.1854Z" fill="url(#paint9_linear)"/>
<path opacity="0.5" d="M100.99 78.8183H89.7111V86.4733H100.99V78.8183Z" fill="url(#paint10_linear)"/>
<path opacity="0.5" d="M116.148 78.8183H104.869V86.4733H116.148V78.8183Z" fill="url(#paint11_linear)"/>
<path opacity="0.5" d="M131.307 78.8183H120.027V86.4733H131.307V78.8183Z" fill="url(#paint12_linear)"/>
<path opacity="0.5" d="M100.99 90.4495H89.7111V98.1045H100.99V90.4495Z" fill="url(#paint13_linear)"/>
<path opacity="0.5" d="M116.148 90.4495H104.869V98.1045H116.148V90.4495Z" fill="url(#paint14_linear)"/>
<path opacity="0.5" d="M131.307 90.4495H120.027V98.1045H131.307V90.4495Z" fill="url(#paint15_linear)"/>
<path d="M100.287 67.6628H90.4164V74.3597H100.287V67.6628Z" fill="#5041EB"/>
<path d="M115.445 67.6628H105.574V74.3597H115.445V67.6628Z" fill="#5041EB"/>
<path opacity="0.5" d="M130.601 67.6628H120.731V74.3597H130.601V67.6628Z" fill="#5041EB"/>
<path d="M100.287 79.2957H90.4164V85.9925H100.287V79.2957Z" fill="#5041EB"/>
<path d="M115.445 79.2957H105.574V85.9925H115.445V79.2957Z" fill="#5041EB"/>
<path opacity="0.5" d="M130.601 79.2957H120.731V85.9925H130.601V79.2957Z" fill="#5041EB"/>
<path d="M100.287 90.9285H90.4164V97.6254H100.287V90.9285Z" fill="#5041EB"/>
<path opacity="0.5" d="M115.445 90.9285H105.574V97.6254H115.445V90.9285Z" fill="#5041EB"/>
<path opacity="0.5" d="M130.601 90.9285H120.731V97.6254H130.601V90.9285Z" fill="#3AD29F"/>
<path opacity="0.5" d="M61.6878 112.96C60.6967 112.96 59.9615 113.125 59.4395 114.034H38.1892V111.744C38.1892 111.15 37.4293 111.373 36.9288 111.373H36.5141C36.0186 111.373 35.6056 111.15 35.6056 111.744V112.255H11.7386C10.5029 112.255 10.0123 113.339 9.84381 114.748C9.84381 114.711 9.8339 114.677 9.8306 114.64C9.82234 114.741 9.81738 114.843 9.81738 114.946V116.487C9.81738 118.093 10.3856 119.393 11.7402 119.393H35.6072V120.168C35.6072 120.762 36.0136 120.539 36.5158 120.539H36.9304C37.426 120.539 38.1908 120.762 38.1908 120.168V117.908H59.5717C59.6679 118.05 59.775 118.185 59.8922 118.311C60.8073 118.775 60.8205 118.877 61.6581 118.877L68.2096 118.613V113.322L61.6878 112.96Z" fill="url(#paint16_linear)"/>
<path d="M60.2771 114.369H27.4946V117.541H60.2771V114.369Z" fill="#E6E6E6"/>
<path opacity="0.03" d="M59.1984 115.957C59.1998 116.523 59.3726 117.076 59.6939 117.543H60.1069V114.371H59.6939C59.3726 114.838 59.1998 115.39 59.1984 115.957Z" fill="black"/>
<path d="M68.0328 118.113L62.1883 118.773C61.4435 118.773 60.7292 118.477 60.2026 117.951C59.6759 117.424 59.3801 116.71 59.3801 115.965C59.3801 115.22 59.6759 114.506 60.2026 113.979C60.7292 113.453 61.4435 113.157 62.1883 113.157L68.0328 113.806V118.113Z" fill="#E6E6E6"/>
<path opacity="0.05" d="M59.689 116.485H27.3113V117.366H59.689C59.9469 117.745 60.2935 118.054 60.6986 118.268C61.1038 118.482 61.5551 118.594 62.0132 118.593L67.8578 117.947V117.067L62.0132 117.716C61.5548 117.716 61.1033 117.604 60.6981 117.39C60.293 117.175 59.9465 116.865 59.689 116.485Z" fill="black"/>
<path d="M12.3894 112.914H36.1425V118.758H12.3894C11.798 118.758 11.2307 118.524 10.8125 118.105C10.3943 117.687 10.1593 117.12 10.1593 116.528V115.139C10.1606 114.549 10.3962 113.983 10.8143 113.565C11.2323 113.148 11.7988 112.914 12.3894 112.914V112.914Z" fill="white"/>
<path d="M37.0477 111.616H36.5356C36.0795 111.616 35.7097 111.985 35.7097 112.442V119.447C35.7097 119.904 36.0795 120.273 36.5356 120.273H37.0477C37.5039 120.273 37.8737 119.904 37.8737 119.447V112.442C37.8737 111.985 37.5039 111.616 37.0477 111.616Z" fill="white"/>
<path opacity="0.05" d="M35.7097 112.914H35.2769V118.758H35.7097V112.914Z" fill="black"/>
<path opacity="0.05" d="M33.7604 113.996H13.8464V114.429H33.7604V113.996Z" fill="black"/>
<path opacity="0.05" d="M33.7604 115.511H13.8464V115.944H33.7604V115.511Z" fill="black"/>
<path opacity="0.05" d="M33.7604 117.027H13.8464V117.46H33.7604V117.027Z" fill="black"/>
<path opacity="0.05" d="M36.9932 118.511H36.5918C36.3583 118.511 36.1343 118.418 35.9692 118.253C35.8041 118.088 35.7113 117.864 35.7113 117.63V116.996H12.5464C11.9587 116.996 11.3918 116.778 10.955 116.385C10.5182 115.992 10.2424 115.451 10.1808 114.867C10.172 114.95 10.1676 115.034 10.1676 115.118V116.203C10.1676 116.834 10.4182 117.439 10.8643 117.885C11.3104 118.331 11.9155 118.582 12.5464 118.582H35.7096V119.216C35.7096 119.45 35.8024 119.674 35.9675 119.839C36.1326 120.004 36.3566 120.097 36.5901 120.097H36.9915C37.225 120.097 37.449 120.004 37.6141 119.839C37.7792 119.674 37.872 119.45 37.872 119.216V117.63C37.872 117.863 37.7795 118.087 37.6147 118.252C37.4499 118.417 37.2264 118.51 36.9932 118.511V118.511Z" fill="black"/>
<path d="M114.563 5.62317L110.018 8.24808V9.38295V13.4962V14.6328L114.563 17.256L119.107 14.6328V13.4962V9.38295V8.24808L114.563 5.62317Z" fill="url(#paint17_linear)"/>
<path opacity="0.5" d="M114.563 12.2028C114.31 12.2027 114.063 12.131 113.849 11.9959C113.636 11.8608 113.465 11.6679 113.357 11.4396C113.465 11.2114 113.636 11.0186 113.849 10.8836C114.063 10.7487 114.31 10.677 114.563 10.677C114.815 10.677 115.063 10.7487 115.276 10.8836C115.489 11.0186 115.66 11.2114 115.769 11.4396C115.66 11.6679 115.49 11.8608 115.276 11.9959C115.063 12.131 114.815 12.2027 114.563 12.2028V12.2028Z" fill="url(#paint18_linear)"/>
<path d="M114.563 7.08344L110.332 9.52498V14.4097L114.563 16.8496L118.793 14.4081V9.52663L114.563 7.08344ZM114.563 13.1956C114.319 13.1956 114.08 13.1232 113.877 12.9876C113.674 12.852 113.516 12.6593 113.423 12.4338C113.329 12.2083 113.305 11.9602 113.352 11.7208C113.4 11.4815 113.517 11.2616 113.69 11.089C113.863 10.9164 114.083 10.7989 114.322 10.7513C114.561 10.7037 114.809 10.7281 115.035 10.8215C115.26 10.9149 115.453 11.0731 115.589 11.276C115.724 11.4789 115.797 11.7175 115.797 11.9616C115.797 12.1242 115.766 12.2853 115.705 12.4358C115.643 12.5863 115.552 12.7231 115.438 12.8384C115.323 12.9537 115.187 13.0452 115.036 13.1076C114.886 13.17 114.725 13.2022 114.563 13.2022V13.1956Z" fill="#E6E6E6"/>
<path d="M114.563 6.02618L110.332 8.46773V13.3525L114.563 15.794L118.793 13.3525V8.46938L114.563 6.02618ZM114.563 12.1383C114.319 12.1383 114.08 12.066 113.877 11.9305C113.674 11.7949 113.516 11.6023 113.423 11.3769C113.329 11.1515 113.305 10.9035 113.352 10.6642C113.4 10.4249 113.517 10.205 113.689 10.0323C113.862 9.8597 114.082 9.74204 114.321 9.69424C114.56 9.64644 114.808 9.67064 115.034 9.76379C115.259 9.85693 115.452 10.0148 115.588 10.2175C115.724 10.4203 115.796 10.6587 115.797 10.9027C115.798 11.0654 115.767 11.2268 115.705 11.3774C115.644 11.5281 115.553 11.6651 115.438 11.7806C115.323 11.896 115.187 11.9877 115.037 12.0502C114.886 12.1127 114.725 12.1449 114.563 12.1449V12.1383Z" fill="white"/>
<path d="M102.755 5.62317L98.2086 8.24808V9.38295V13.4962V14.6328L102.755 17.256L107.299 14.6328V13.4962V9.38295V8.24808L102.755 5.62317Z" fill="url(#paint19_linear)"/>
<path opacity="0.5" d="M102.755 12.2028C102.502 12.2027 102.255 12.131 102.041 11.9959C101.828 11.8608 101.657 11.6679 101.549 11.4396C101.657 11.2114 101.828 11.0186 102.041 10.8836C102.255 10.7487 102.502 10.677 102.755 10.677C103.007 10.677 103.255 10.7487 103.468 10.8836C103.682 11.0186 103.852 11.2114 103.961 11.4396C103.852 11.6679 103.682 11.8608 103.468 11.9959C103.255 12.131 103.007 12.2027 102.755 12.2028V12.2028Z" fill="url(#paint20_linear)"/>
<path d="M102.755 7.08344L98.5241 9.52498V14.4097L102.755 16.8496L106.985 14.4081V9.52663L102.755 7.08344ZM102.755 13.1956C102.511 13.1956 102.272 13.1232 102.069 12.9876C101.866 12.852 101.708 12.6593 101.615 12.4338C101.521 12.2083 101.497 11.9602 101.544 11.7208C101.592 11.4815 101.71 11.2616 101.882 11.089C102.055 10.9164 102.275 10.7989 102.514 10.7513C102.753 10.7037 103.001 10.7281 103.227 10.8215C103.452 10.9149 103.645 11.0731 103.781 11.276C103.916 11.4789 103.989 11.7175 103.989 11.9616C103.99 12.1242 103.958 12.2853 103.897 12.4358C103.835 12.5863 103.744 12.7231 103.63 12.8384C103.515 12.9537 103.379 13.0452 103.228 13.1076C103.078 13.17 102.917 13.2022 102.755 13.2022V13.1956Z" fill="#E6E6E6"/>
<path d="M102.755 6.02618L98.5241 8.46773V13.3525L102.755 15.794L106.985 13.3525V8.46938L102.755 6.02618ZM102.755 12.1383C102.511 12.1383 102.272 12.0659 102.069 11.9303C101.866 11.7947 101.708 11.602 101.615 11.3765C101.521 11.1511 101.497 10.9029 101.544 10.6636C101.592 10.4242 101.71 10.2043 101.882 10.0318C102.055 9.85918 102.275 9.74165 102.514 9.69404C102.753 9.64643 103.001 9.67086 103.227 9.76426C103.452 9.85766 103.645 10.0158 103.781 10.2187C103.916 10.4217 103.989 10.6603 103.989 10.9043C103.99 11.0669 103.958 11.2281 103.897 11.3786C103.835 11.529 103.744 11.6659 103.63 11.7812C103.515 11.8964 103.379 11.9879 103.228 12.0503C103.078 12.1128 102.917 12.1449 102.755 12.1449V12.1383Z" fill="white"/>
<path d="M107.689 5.09454L103.145 7.71945V8.85432V12.9676V14.1025L107.689 16.7274L112.233 14.1025V12.9676V8.85432V7.71945L107.689 5.09454Z" fill="url(#paint21_linear)"/>
<path opacity="0.5" d="M107.689 11.6741C107.436 11.6741 107.189 11.6023 106.975 11.4672C106.762 11.3321 106.591 11.1392 106.483 10.9109C106.591 10.6827 106.762 10.49 106.976 10.355C107.189 10.22 107.436 10.1483 107.689 10.1483C107.942 10.1483 108.189 10.22 108.402 10.355C108.616 10.49 108.787 10.6827 108.895 10.9109C108.787 11.1392 108.616 11.3321 108.402 11.4672C108.189 11.6023 107.942 11.6741 107.689 11.6741Z" fill="url(#paint22_linear)"/>
<path d="M107.689 6.55487L103.458 8.99641V13.8762L107.689 16.3177L111.92 13.8762V8.99807L107.689 6.55487ZM107.689 12.667C107.445 12.667 107.206 12.5946 107.003 12.459C106.8 12.3234 106.642 12.1307 106.549 11.9052C106.456 11.6797 106.431 11.4316 106.479 11.1923C106.526 10.9529 106.644 10.733 106.816 10.5604C106.989 10.3879 107.209 10.2703 107.448 10.2227C107.688 10.1751 107.936 10.1995 108.161 10.2929C108.387 10.3863 108.579 10.5445 108.715 10.7474C108.851 10.9504 108.923 11.1889 108.923 11.433C108.924 11.5956 108.893 11.7568 108.831 11.9073C108.769 12.0577 108.679 12.1946 108.564 12.3098C108.449 12.4251 108.313 12.5166 108.163 12.579C108.013 12.6415 107.852 12.6736 107.689 12.6736V12.667Z" fill="#E6E6E6"/>
<path d="M107.689 5.49762L103.458 7.93916V12.8239L107.689 15.2654L111.92 12.8239V7.94082L107.689 5.49762ZM107.689 11.6097C107.445 11.6097 107.206 11.5374 107.003 11.4018C106.8 11.2662 106.642 11.0735 106.549 10.848C106.456 10.6225 106.431 10.3744 106.479 10.135C106.526 9.89564 106.644 9.67577 106.816 9.50319C106.989 9.33062 107.209 9.21309 107.448 9.16548C107.688 9.11786 107.936 9.1423 108.161 9.2357C108.387 9.32909 108.579 9.48726 108.715 9.69019C108.851 9.89311 108.923 10.1317 108.923 10.3758C108.924 10.5384 108.893 10.6995 108.831 10.85C108.769 11.0005 108.679 11.1373 108.564 11.2526C108.449 11.3679 108.313 11.4594 108.163 11.5218C108.013 11.5842 107.852 11.6164 107.689 11.6163V11.6097Z" fill="white"/>
<path d="M102.001 43.9478C105.572 43.9478 108.467 41.0531 108.467 37.4822C108.467 33.9113 105.572 31.0165 102.001 31.0165C98.4305 31.0165 95.5357 33.9113 95.5357 37.4822C95.5357 41.0531 98.4305 43.9478 102.001 43.9478Z" fill="url(#paint23_linear)"/>
<path d="M102.001 43.5431C105.349 43.5431 108.062 40.8295 108.062 37.4822C108.062 34.1348 105.349 31.4213 102.001 31.4213C98.654 31.4213 95.9405 34.1348 95.9405 37.4822C95.9405 40.8295 98.654 43.5431 102.001 43.5431Z" fill="white"/>
<path d="M102.001 37.8869C102.225 37.8869 102.406 37.7056 102.406 37.4821C102.406 37.2586 102.225 37.0774 102.001 37.0774C101.778 37.0774 101.597 37.2586 101.597 37.4821C101.597 37.7056 101.778 37.8869 102.001 37.8869Z" fill="#333333"/>
<path d="M102.001 37.4821L105.637 33.8463" stroke="#333333" stroke-width="3" stroke-miterlimit="10"/>
<path opacity="0.05" d="M103.052 37.3203C103.052 38.3215 103.299 39.3071 103.773 40.189C104.247 41.0709 104.933 41.8215 105.768 42.3735C106.535 41.7865 107.15 41.0247 107.563 40.1517C107.975 39.2786 108.173 38.3196 108.14 37.3545C108.107 36.3893 107.844 35.4461 107.372 34.6034C106.9 33.7607 106.234 33.0429 105.429 32.5099C104.69 33.0748 104.09 33.8028 103.678 34.6371C103.266 35.4714 103.052 36.3897 103.052 37.3203V37.3203Z" fill="black"/>
<path d="M119.016 43.9478C122.587 43.9478 125.482 41.0531 125.482 37.4822C125.482 33.9113 122.587 31.0165 119.016 31.0165C115.445 31.0165 112.551 33.9113 112.551 37.4822C112.551 41.0531 115.445 43.9478 119.016 43.9478Z" fill="url(#paint24_linear)"/>
<path d="M119.016 43.5431C122.364 43.5431 125.077 40.8295 125.077 37.4822C125.077 34.1348 122.364 31.4213 119.016 31.4213C115.669 31.4213 112.955 34.1348 112.955 37.4822C112.955 40.8295 115.669 43.5431 119.016 43.5431Z" fill="white"/>
<path d="M119.016 37.8869C119.24 37.8869 119.421 37.7056 119.421 37.4821C119.421 37.2586 119.24 37.0774 119.016 37.0774C118.793 37.0774 118.611 37.2586 118.611 37.4821C118.611 37.7056 118.793 37.8869 119.016 37.8869Z" fill="#333333"/>
<path d="M119.016 37.4821L122.652 33.8463" stroke="#333333" stroke-width="3" stroke-miterlimit="10"/>
<path opacity="0.05" d="M120.067 37.3203C120.066 38.3215 120.314 39.3071 120.788 40.189C121.262 41.0709 121.947 41.8215 122.783 42.3735C123.549 41.7865 124.165 41.0247 124.577 40.1517C124.99 39.2786 125.188 38.3196 125.155 37.3545C125.122 36.3893 124.858 35.4461 124.387 34.6034C123.915 33.7607 123.249 33.0429 122.444 32.5099C121.704 33.0748 121.105 33.8028 120.693 34.6371C120.281 35.4714 120.066 36.3897 120.067 37.3203V37.3203Z" fill="black"/>
<path d="M102.001 59.1455C105.572 59.1455 108.467 56.2507 108.467 52.6799C108.467 49.109 105.572 46.2142 102.001 46.2142C98.4305 46.2142 95.5357 49.109 95.5357 52.6799C95.5357 56.2507 98.4305 59.1455 102.001 59.1455Z" fill="url(#paint25_linear)"/>
<path d="M102.001 58.7408C105.349 58.7408 108.062 56.0272 108.062 52.6799C108.062 49.3325 105.349 46.619 102.001 46.619C98.654 46.619 95.9405 49.3325 95.9405 52.6799C95.9405 56.0272 98.654 58.7408 102.001 58.7408Z" fill="white"/>
<path d="M102.001 53.0846C102.225 53.0846 102.406 52.9034 102.406 52.6799C102.406 52.4563 102.225 52.2751 102.001 52.2751C101.778 52.2751 101.597 52.4563 101.597 52.6799C101.597 52.9034 101.778 53.0846 102.001 53.0846Z" fill="#333333"/>
<path d="M102.001 52.6798L98.1359 56.5453" stroke="#333333" stroke-width="3" stroke-miterlimit="10"/>
<path opacity="0.05" d="M103.052 52.518C103.052 53.5192 103.299 54.5048 103.773 55.3867C104.247 56.2686 104.933 57.0191 105.768 57.5712C106.535 56.9842 107.15 56.2224 107.563 55.3494C107.975 54.4763 108.173 53.5172 108.14 52.5521C108.107 51.587 107.844 50.6438 107.372 49.8011C106.9 48.9584 106.234 48.2406 105.429 47.7076C104.69 48.2725 104.09 49.0005 103.678 49.8348C103.266 50.6691 103.052 51.5873 103.052 52.518V52.518Z" fill="black"/>
<path d="M119.016 59.1455C122.587 59.1455 125.482 56.2507 125.482 52.6799C125.482 49.109 122.587 46.2142 119.016 46.2142C115.445 46.2142 112.551 49.109 112.551 52.6799C112.551 56.2507 115.445 59.1455 119.016 59.1455Z" fill="url(#paint26_linear)"/>
<path d="M119.016 58.7408C122.364 58.7408 125.077 56.0272 125.077 52.6799C125.077 49.3325 122.364 46.619 119.016 46.619C115.669 46.619 112.955 49.3325 112.955 52.6799C112.955 56.0272 115.669 58.7408 119.016 58.7408Z" fill="white"/>
<path d="M119.016 53.0846C119.24 53.0846 119.421 52.9034 119.421 52.6799C119.421 52.4563 119.24 52.2751 119.016 52.2751C118.793 52.2751 118.611 52.4563 118.611 52.6799C118.611 52.9034 118.793 53.0846 119.016 53.0846Z" fill="#333333"/>
<path d="M119.016 52.6799L122.652 49.044" stroke="#333333" stroke-width="3" stroke-miterlimit="10"/>
<path opacity="0.05" d="M120.067 52.518C120.066 53.5192 120.314 54.5048 120.788 55.3867C121.262 56.2686 121.947 57.0191 122.783 57.5712C123.549 56.9842 124.165 56.2224 124.577 55.3494C124.99 54.4763 125.188 53.5172 125.155 52.5521C125.122 51.587 124.858 50.6438 124.387 49.8011C123.915 48.9584 123.249 48.2406 122.444 47.7076C121.704 48.2725 121.105 49.0005 120.693 49.8348C120.281 50.6691 120.066 51.5873 120.067 52.518V52.518Z" fill="black"/>
<defs>
<linearGradient id="paint0_linear" x1="70.5008" y1="107.558" x2="70.5008" y2="21.9524" gradientUnits="userSpaceOnUse">
<stop stop-color="#808080" stop-opacity="0.25"/>
<stop offset="0.54" stop-color="#808080" stop-opacity="0.12"/>
<stop offset="1" stop-color="#808080" stop-opacity="0.1"/>
</linearGradient>
<linearGradient id="paint1_linear" x1="2236.92" y1="2165.31" x2="2236.92" y2="1744.36" gradientUnits="userSpaceOnUse">
<stop stop-color="#808080" stop-opacity="0.25"/>
<stop offset="0.54" stop-color="#808080" stop-opacity="0.12"/>
<stop offset="1" stop-color="#808080" stop-opacity="0.1"/>
</linearGradient>
<linearGradient id="paint2_linear" x1="1097.37" y1="2743.59" x2="1097.37" y2="2322.64" gradientUnits="userSpaceOnUse">
<stop stop-color="#808080" stop-opacity="0.25"/>
<stop offset="0.54" stop-color="#808080" stop-opacity="0.12"/>
<stop offset="1" stop-color="#808080" stop-opacity="0.1"/>
</linearGradient>
<linearGradient id="paint3_linear" x1="3529.54" y1="3330.38" x2="3529.54" y2="2909.43" gradientUnits="userSpaceOnUse">
<stop stop-color="#808080" stop-opacity="0.25"/>
<stop offset="0.54" stop-color="#808080" stop-opacity="0.12"/>
<stop offset="1" stop-color="#808080" stop-opacity="0.1"/>
</linearGradient>
<linearGradient id="paint4_linear" x1="1803.21" y1="3908.64" x2="1803.21" y2="3487.69" gradientUnits="userSpaceOnUse">
<stop stop-color="#808080" stop-opacity="0.25"/>
<stop offset="0.54" stop-color="#808080" stop-opacity="0.12"/>
<stop offset="1" stop-color="#808080" stop-opacity="0.1"/>
</linearGradient>
<linearGradient id="paint5_linear" x1="689.17" y1="4486.93" x2="689.17" y2="4065.98" gradientUnits="userSpaceOnUse">
<stop stop-color="#808080" stop-opacity="0.25"/>
<stop offset="0.54" stop-color="#808080" stop-opacity="0.12"/>
<stop offset="1" stop-color="#808080" stop-opacity="0.1"/>
</linearGradient>
<linearGradient id="paint6_linear" x1="2942.76" y1="5065.21" x2="2942.76" y2="4644.26" gradientUnits="userSpaceOnUse">
<stop stop-color="#808080" stop-opacity="0.25"/>
<stop offset="0.54" stop-color="#808080" stop-opacity="0.12"/>
<stop offset="1" stop-color="#808080" stop-opacity="0.1"/>
</linearGradient>
<linearGradient id="paint7_linear" x1="6600.26" y1="3535.21" x2="6600.26" y2="3180.56" gradientUnits="userSpaceOnUse">
<stop stop-color="#808080" stop-opacity="0.25"/>
<stop offset="0.54" stop-color="#808080" stop-opacity="0.12"/>
<stop offset="1" stop-color="#808080" stop-opacity="0.1"/>
</linearGradient>
<linearGradient id="paint8_linear" x1="7650.41" y1="3535.21" x2="7650.41" y2="3180.56" gradientUnits="userSpaceOnUse">
<stop stop-color="#808080" stop-opacity="0.25"/>
<stop offset="0.54" stop-color="#808080" stop-opacity="0.12"/>
<stop offset="1" stop-color="#808080" stop-opacity="0.1"/>
</linearGradient>
<linearGradient id="paint9_linear" x1="8700.55" y1="3535.21" x2="8700.55" y2="3180.56" gradientUnits="userSpaceOnUse">
<stop stop-color="#808080" stop-opacity="0.25"/>
<stop offset="0.54" stop-color="#808080" stop-opacity="0.12"/>
<stop offset="1" stop-color="#808080" stop-opacity="0.1"/>
</linearGradient>
<linearGradient id="paint10_linear" x1="6600.26" y1="4085.9" x2="6600.26" y2="3731.24" gradientUnits="userSpaceOnUse">
<stop stop-color="#808080" stop-opacity="0.25"/>
<stop offset="0.54" stop-color="#808080" stop-opacity="0.12"/>
<stop offset="1" stop-color="#808080" stop-opacity="0.1"/>
</linearGradient>
<linearGradient id="paint11_linear" x1="7650.41" y1="4085.9" x2="7650.41" y2="3731.24" gradientUnits="userSpaceOnUse">
<stop stop-color="#808080" stop-opacity="0.25"/>
<stop offset="0.54" stop-color="#808080" stop-opacity="0.12"/>
<stop offset="1" stop-color="#808080" stop-opacity="0.1"/>
</linearGradient>
<linearGradient id="paint12_linear" x1="8700.55" y1="4085.9" x2="8700.55" y2="3731.24" gradientUnits="userSpaceOnUse">
<stop stop-color="#808080" stop-opacity="0.25"/>
<stop offset="0.54" stop-color="#808080" stop-opacity="0.12"/>
<stop offset="1" stop-color="#808080" stop-opacity="0.1"/>
</linearGradient>
<linearGradient id="paint13_linear" x1="6600.26" y1="4636.61" x2="6600.26" y2="4281.88" gradientUnits="userSpaceOnUse">
<stop stop-color="#808080" stop-opacity="0.25"/>
<stop offset="0.54" stop-color="#808080" stop-opacity="0.12"/>
<stop offset="1" stop-color="#808080" stop-opacity="0.1"/>
</linearGradient>
<linearGradient id="paint14_linear" x1="7650.41" y1="4636.61" x2="7650.41" y2="4281.88" gradientUnits="userSpaceOnUse">
<stop stop-color="#808080" stop-opacity="0.25"/>
<stop offset="0.54" stop-color="#808080" stop-opacity="0.12"/>
<stop offset="1" stop-color="#808080" stop-opacity="0.1"/>
</linearGradient>
<linearGradient id="paint15_linear" x1="8700.55" y1="4636.61" x2="8700.55" y2="4281.88" gradientUnits="userSpaceOnUse">
<stop stop-color="#808080" stop-opacity="0.25"/>
<stop offset="0.54" stop-color="#808080" stop-opacity="0.12"/>
<stop offset="1" stop-color="#808080" stop-opacity="0.1"/>
</linearGradient>
<linearGradient id="paint16_linear" x1="13594.2" y1="7139.69" x2="34235.3" y2="7139.69" gradientUnits="userSpaceOnUse">
<stop stop-color="#808080" stop-opacity="0.25"/>
<stop offset="0.54" stop-color="#808080" stop-opacity="0.12"/>
<stop offset="1" stop-color="#808080" stop-opacity="0.1"/>
</linearGradient>
<linearGradient id="paint17_linear" x1="6413.25" y1="1220.79" x2="6413.25" y2="401.605" gradientUnits="userSpaceOnUse">
<stop stop-color="#808080" stop-opacity="0.25"/>
<stop offset="0.54" stop-color="#808080" stop-opacity="0.12"/>
<stop offset="1" stop-color="#808080" stop-opacity="0.1"/>
</linearGradient>
<linearGradient id="paint18_linear" x1="2203.75" y1="211.882" x2="2203.75" y2="197.784" gradientUnits="userSpaceOnUse">
<stop stop-color="#808080" stop-opacity="0.25"/>
<stop offset="0.54" stop-color="#808080" stop-opacity="0.12"/>
<stop offset="1" stop-color="#808080" stop-opacity="0.1"/>
</linearGradient>
<linearGradient id="paint19_linear" x1="5752.79" y1="1220.79" x2="5752.79" y2="401.605" gradientUnits="userSpaceOnUse">
<stop stop-color="#808080" stop-opacity="0.25"/>
<stop offset="0.54" stop-color="#808080" stop-opacity="0.12"/>
<stop offset="1" stop-color="#808080" stop-opacity="0.1"/>
</linearGradient>
<linearGradient id="paint20_linear" x1="2019.54" y1="211.882" x2="2019.54" y2="197.784" gradientUnits="userSpaceOnUse">
<stop stop-color="#808080" stop-opacity="0.25"/>
<stop offset="0.54" stop-color="#808080" stop-opacity="0.12"/>
<stop offset="1" stop-color="#808080" stop-opacity="0.1"/>
</linearGradient>
<linearGradient id="paint21_linear" x1="6028.19" y1="1183.04" x2="6028.19" y2="363.852" gradientUnits="userSpaceOnUse">
<stop stop-color="#808080" stop-opacity="0.25"/>
<stop offset="0.54" stop-color="#808080" stop-opacity="0.12"/>
<stop offset="1" stop-color="#808080" stop-opacity="0.1"/>
</linearGradient>
<linearGradient id="paint22_linear" x1="2096.5" y1="206.472" x2="2096.5" y2="192.373" gradientUnits="userSpaceOnUse">
<stop stop-color="#808080" stop-opacity="0.25"/>
<stop offset="0.54" stop-color="#808080" stop-opacity="0.12"/>
<stop offset="1" stop-color="#808080" stop-opacity="0.1"/>
</linearGradient>
<linearGradient id="paint23_linear" x1="8080.2" y1="3471.25" x2="8080.2" y2="2459.12" gradientUnits="userSpaceOnUse">
<stop stop-color="#808080" stop-opacity="0.25"/>
<stop offset="0.54" stop-color="#808080" stop-opacity="0.12"/>
<stop offset="1" stop-color="#808080" stop-opacity="0.1"/>
</linearGradient>
<linearGradient id="paint24_linear" x1="9429.13" y1="3471.25" x2="9429.13" y2="2459.12" gradientUnits="userSpaceOnUse">
<stop stop-color="#808080" stop-opacity="0.25"/>
<stop offset="0.54" stop-color="#808080" stop-opacity="0.12"/>
<stop offset="1" stop-color="#808080" stop-opacity="0.1"/>
</linearGradient>
<linearGradient id="paint25_linear" x1="8080.2" y1="4676.12" x2="8080.2" y2="3663.99" gradientUnits="userSpaceOnUse">
<stop stop-color="#808080" stop-opacity="0.25"/>
<stop offset="0.54" stop-color="#808080" stop-opacity="0.12"/>
<stop offset="1" stop-color="#808080" stop-opacity="0.1"/>
</linearGradient>
<linearGradient id="paint26_linear" x1="9429.13" y1="4676.12" x2="9429.13" y2="3663.99" gradientUnits="userSpaceOnUse">
<stop stop-color="#808080" stop-opacity="0.25"/>
<stop offset="0.54" stop-color="#808080" stop-opacity="0.12"/>
<stop offset="1" stop-color="#808080" stop-opacity="0.1"/>
</linearGradient>
</defs>
</svg>
