<svg width="435" height="181" viewBox="0 0 435 181" fill="none" xmlns="http://www.w3.org/2000/svg">
<path fill-rule="evenodd" clip-rule="evenodd" d="M158 150.784C172.304 134.779 181 113.655 181 90.5C181 67.3451 172.304 46.2212 158 30.216V50.2727H158.002V131H158V150.784ZM141 165.611C126.576 175.328 109.2 181 90.5 181C40.5182 181 0 140.482 0 90.5C0 40.5182 40.5182 0 90.5 0C109.2 0 126.576 5.67177 141 15.3889V50.2727H140.974V83.5806H106.326V50.2727H89.2582V131H106.326V97.6527H140.974V131H141V165.611Z" fill="#4F4BEC"/>
<path d="M238.505 48.89C238.268 49.1977 238.043 49.4343 237.83 49.6C237.617 49.7657 237.31 49.8485 236.907 49.8485C236.505 49.8485 236.079 49.7065 235.629 49.4225C235.203 49.1385 234.683 48.8308 234.067 48.4995C233.476 48.1445 232.754 47.825 231.902 47.541C231.05 47.257 229.985 47.115 228.707 47.115C227.05 47.115 225.595 47.4108 224.34 48.0025C223.11 48.5942 222.068 49.4462 221.216 50.5585C220.388 51.6472 219.761 52.9843 219.335 54.57C218.932 56.132 218.731 57.8952 218.731 59.8595C218.731 61.8948 218.956 63.7053 219.406 65.291C219.855 66.8767 220.494 68.2138 221.323 69.3025C222.175 70.3912 223.192 71.2195 224.376 71.7875C225.583 72.3555 226.932 72.6395 228.423 72.6395C229.89 72.6395 231.085 72.462 232.008 72.107C232.931 71.752 233.7 71.3615 234.316 70.9355C234.931 70.5095 235.452 70.119 235.878 69.764C236.327 69.409 236.801 69.2315 237.298 69.2315C237.913 69.2315 238.386 69.4682 238.718 69.9415L240.883 72.746C240.008 73.811 239.037 74.7103 237.972 75.444C236.907 76.1777 235.783 76.7812 234.6 77.2545C233.416 77.7042 232.186 78.0237 230.908 78.213C229.63 78.426 228.34 78.5325 227.038 78.5325C224.79 78.5325 222.684 78.1183 220.719 77.29C218.779 76.438 217.075 75.2192 215.607 73.6335C214.164 72.0242 213.016 70.0717 212.164 67.776C211.335 65.4567 210.921 62.8178 210.921 59.8595C210.921 57.1852 211.3 54.712 212.057 52.44C212.815 50.1443 213.915 48.1682 215.359 46.5115C216.826 44.8548 218.637 43.565 220.79 42.642C222.944 41.6953 225.429 41.222 228.245 41.222C230.872 41.222 233.18 41.648 235.168 42.5C237.179 43.352 238.966 44.559 240.528 46.121L238.505 48.89ZM264.069 52.937C265.915 52.937 267.536 52.7003 268.933 52.227C270.353 51.7537 271.524 51.091 272.447 50.239C273.394 49.3633 274.104 48.3102 274.577 47.0795C275.051 45.8488 275.287 44.4762 275.287 42.9615C275.287 41.4705 275.051 40.1333 274.577 38.95C274.128 37.7667 273.441 36.7608 272.518 35.9325C271.595 35.1042 270.424 34.477 269.004 34.051C267.607 33.6013 265.963 33.3765 264.069 33.3765H256.472V52.937H264.069ZM264.069 26.88C267.406 26.88 270.294 27.2705 272.731 28.0515C275.193 28.8325 277.216 29.933 278.802 31.353C280.411 32.7493 281.606 34.4415 282.387 36.4295C283.168 38.3938 283.559 40.5712 283.559 42.9615C283.559 45.3992 283.145 47.6357 282.316 49.671C281.488 51.6827 280.257 53.4222 278.624 54.8895C276.991 56.3332 274.956 57.4692 272.518 58.2975C270.104 59.1022 267.288 59.5045 264.069 59.5045H256.472V78H248.165V26.88H264.069ZM308.318 62.167C305.597 62.2617 303.301 62.4865 301.431 62.8415C299.562 63.1728 298.047 63.6107 296.887 64.155C295.728 64.6757 294.887 65.3028 294.367 66.0365C293.87 66.7702 293.621 67.5748 293.621 68.4505C293.621 69.3025 293.751 70.0362 294.012 70.6515C294.296 71.2432 294.674 71.7402 295.148 72.1425C295.645 72.5212 296.213 72.8052 296.852 72.9945C297.514 73.1602 298.236 73.243 299.017 73.243C301.005 73.243 302.709 72.8762 304.129 72.1425C305.573 71.3852 306.969 70.2965 308.318 68.8765V62.167ZM288.083 46.831C292.178 43.0207 297.053 41.1155 302.709 41.1155C304.792 41.1155 306.638 41.4587 308.247 42.145C309.88 42.8077 311.241 43.7543 312.33 44.985C313.442 46.2157 314.282 47.683 314.85 49.387C315.442 51.0673 315.738 52.937 315.738 54.996V78H312.33C311.596 78 311.04 77.8935 310.661 77.6805C310.283 77.4438 309.963 76.9823 309.703 76.296L308.957 73.3495C308.034 74.1778 307.123 74.9233 306.224 75.586C305.324 76.225 304.39 76.7693 303.419 77.219C302.473 77.6687 301.443 78 300.331 78.213C299.242 78.4497 298.035 78.568 296.71 78.568C295.242 78.568 293.87 78.3668 292.592 77.9645C291.337 77.5622 290.249 76.9587 289.326 76.154C288.403 75.3257 287.669 74.308 287.125 73.101C286.604 71.894 286.344 70.474 286.344 68.841C286.344 67.4447 286.711 66.0838 287.444 64.7585C288.202 63.4332 289.432 62.2498 291.136 61.2085C292.864 60.1435 295.124 59.2678 297.917 58.5815C300.733 57.8952 304.2 57.5047 308.318 57.41V54.996C308.318 52.3927 307.762 50.452 306.65 49.174C305.537 47.896 303.904 47.257 301.751 47.257C300.283 47.257 299.053 47.4463 298.059 47.825C297.065 48.18 296.201 48.5705 295.467 48.9965C294.734 49.4225 294.083 49.8248 293.515 50.2035C292.947 50.5585 292.343 50.736 291.704 50.736C291.184 50.736 290.734 50.6058 290.355 50.3455C290 50.0615 289.704 49.7183 289.468 49.316L288.083 46.831ZM331.814 46.5825C332.595 45.7778 333.4 45.056 334.228 44.417C335.08 43.7543 335.98 43.1863 336.926 42.713C337.873 42.2397 338.879 41.8728 339.944 41.6125C341.009 41.3522 342.168 41.222 343.423 41.222C345.411 41.222 347.15 41.5533 348.641 42.216C350.156 42.8787 351.422 43.8135 352.44 45.0205C353.481 46.2275 354.262 47.683 354.783 49.387C355.303 51.0673 355.564 52.9252 355.564 54.9605V78H347.967V54.9605C347.967 52.5228 347.399 50.6295 346.263 49.2805C345.15 47.9315 343.446 47.257 341.151 47.257C339.447 47.257 337.861 47.6475 336.394 48.4285C334.95 49.2095 333.589 50.2745 332.311 51.6235V78H324.679V41.79H329.294C330.335 41.79 330.998 42.2752 331.282 43.2455L331.814 46.5825ZM388.227 55.8125C388.227 54.5345 388.038 53.3512 387.659 52.2625C387.304 51.1502 386.772 50.1917 386.062 49.387C385.352 48.5587 384.464 47.9197 383.399 47.47C382.358 46.9967 381.151 46.76 379.778 46.76C377.009 46.76 374.832 47.5528 373.246 49.1385C371.66 50.7242 370.655 52.9488 370.229 55.8125H388.227ZM370.016 60.4985C370.11 62.5575 370.43 64.3443 370.974 65.859C371.518 67.35 372.24 68.5925 373.14 69.5865C374.063 70.5805 375.151 71.326 376.406 71.823C377.684 72.2963 379.104 72.533 380.666 72.533C382.157 72.533 383.446 72.3673 384.535 72.036C385.624 71.681 386.57 71.3023 387.375 70.9C388.18 70.474 388.866 70.0953 389.434 69.764C390.002 69.409 390.523 69.2315 390.996 69.2315C391.611 69.2315 392.085 69.4682 392.416 69.9415L394.582 72.746C393.682 73.811 392.665 74.7103 391.529 75.444C390.393 76.1777 389.186 76.7812 387.908 77.2545C386.63 77.7042 385.316 78.0237 383.967 78.213C382.618 78.426 381.305 78.5325 380.027 78.5325C377.518 78.5325 375.187 78.1183 373.033 77.29C370.903 76.438 369.045 75.1955 367.46 73.5625C365.898 71.9295 364.667 69.906 363.768 67.492C362.892 65.078 362.454 62.2972 362.454 59.1495C362.454 56.6408 362.845 54.2978 363.626 52.1205C364.43 49.9432 365.566 48.0498 367.034 46.4405C368.525 44.8312 370.323 43.565 372.43 42.642C374.56 41.6953 376.962 41.222 379.636 41.222C381.861 41.222 383.92 41.5888 385.813 42.3225C387.706 43.0325 389.339 44.0857 390.712 45.482C392.085 46.8783 393.15 48.5942 393.907 50.6295C394.688 52.6412 395.079 54.9368 395.079 57.5165C395.079 58.6998 394.948 59.4927 394.688 59.895C394.428 60.2973 393.954 60.4985 393.268 60.4985H370.016ZM409.971 25.46V78H402.338V25.46H409.971Z" fill="#4F4BEC"/>
<path d="M236.503 105.88V157H228.196V134.244H202.53V157H194.187V105.88H202.53V128.245H228.196V105.88H236.503ZM261.811 120.222C264.486 120.222 266.9 120.66 269.053 121.535C271.231 122.411 273.077 123.654 274.591 125.263C276.13 126.872 277.313 128.825 278.141 131.12C278.97 133.416 279.384 135.996 279.384 138.859C279.384 141.723 278.97 144.303 278.141 146.598C277.313 148.894 276.13 150.858 274.591 152.491C273.077 154.101 271.231 155.343 269.053 156.219C266.9 157.095 264.486 157.533 261.811 157.533C259.113 157.533 256.676 157.095 254.498 156.219C252.345 155.343 250.499 154.101 248.96 152.491C247.422 150.858 246.239 148.894 245.41 146.598C244.582 144.303 244.168 141.723 244.168 138.859C244.168 135.996 244.582 133.416 245.41 131.12C246.239 128.825 247.422 126.872 248.96 125.263C250.499 123.654 252.345 122.411 254.498 121.535C256.676 120.66 259.113 120.222 261.811 120.222ZM261.811 151.568C265.077 151.568 267.503 150.48 269.089 148.302C270.698 146.101 271.503 142.966 271.503 138.895C271.503 134.824 270.698 131.688 269.089 129.487C267.503 127.263 265.077 126.15 261.811 126.15C258.498 126.15 256.037 127.263 254.427 129.487C252.818 131.688 252.013 134.824 252.013 138.895C252.013 142.966 252.818 146.101 254.427 148.302C256.037 150.48 258.498 151.568 261.811 151.568ZM308.337 127.357C308.148 127.689 307.935 127.925 307.698 128.067C307.461 128.209 307.165 128.28 306.81 128.28C306.408 128.28 305.97 128.162 305.497 127.925C305.024 127.665 304.467 127.381 303.828 127.073C303.189 126.766 302.432 126.494 301.556 126.257C300.704 125.997 299.699 125.866 298.539 125.866C297.592 125.866 296.728 125.985 295.947 126.221C295.19 126.434 294.539 126.754 293.995 127.18C293.474 127.582 293.072 128.067 292.788 128.635C292.504 129.18 292.362 129.771 292.362 130.41C292.362 131.262 292.622 131.972 293.143 132.54C293.664 133.108 294.35 133.605 295.202 134.031C296.054 134.434 297.024 134.801 298.113 135.132C299.202 135.463 300.314 135.818 301.45 136.197C302.586 136.576 303.698 137.013 304.787 137.51C305.876 138.007 306.846 138.623 307.698 139.356C308.55 140.066 309.236 140.942 309.757 141.983C310.278 143.001 310.538 144.244 310.538 145.711C310.538 147.415 310.23 148.989 309.615 150.432C309 151.876 308.1 153.13 306.917 154.195C305.734 155.26 304.254 156.089 302.479 156.68C300.728 157.272 298.716 157.568 296.444 157.568C295.19 157.568 293.971 157.45 292.788 157.213C291.628 157 290.516 156.704 289.451 156.325C288.41 155.923 287.427 155.45 286.504 154.905C285.605 154.361 284.8 153.769 284.09 153.13L285.865 150.219C286.078 149.864 286.339 149.592 286.646 149.403C286.978 149.19 287.38 149.083 287.853 149.083C288.35 149.083 288.836 149.249 289.309 149.58C289.806 149.888 290.374 150.231 291.013 150.61C291.676 150.989 292.468 151.344 293.391 151.675C294.314 151.983 295.462 152.136 296.835 152.136C297.971 152.136 298.953 152.006 299.781 151.746C300.61 151.462 301.296 151.083 301.84 150.61C302.385 150.137 302.787 149.604 303.047 149.012C303.308 148.397 303.438 147.746 303.438 147.06C303.438 146.137 303.178 145.38 302.657 144.788C302.136 144.196 301.438 143.687 300.562 143.261C299.71 142.835 298.728 142.457 297.616 142.125C296.527 141.794 295.415 141.439 294.279 141.06C293.143 140.682 292.019 140.244 290.906 139.747C289.818 139.25 288.836 138.623 287.96 137.865C287.108 137.084 286.422 136.15 285.901 135.061C285.38 133.949 285.12 132.6 285.12 131.014C285.12 129.57 285.404 128.198 285.972 126.896C286.564 125.594 287.416 124.446 288.528 123.452C289.664 122.458 291.048 121.677 292.681 121.109C294.338 120.518 296.243 120.222 298.397 120.222C300.835 120.222 303.047 120.612 305.035 121.393C307.023 122.174 308.692 123.239 310.041 124.588L308.337 127.357ZM352.856 157H345.223V126.789H327.58V147.344C327.58 148.646 327.899 149.64 328.538 150.326C329.177 151.012 330.029 151.355 331.094 151.355C331.686 151.355 332.195 151.284 332.621 151.142C333.047 150.977 333.413 150.811 333.721 150.645C334.029 150.456 334.289 150.29 334.502 150.148C334.739 149.983 334.964 149.9 335.177 149.9C335.603 149.9 335.946 150.137 336.206 150.61L338.478 154.337C337.295 155.379 335.898 156.183 334.289 156.751C332.68 157.296 331.023 157.568 329.319 157.568C326.313 157.568 323.994 156.728 322.361 155.047C320.752 153.343 319.947 150.953 319.947 147.877V126.789H315.971C315.545 126.789 315.178 126.659 314.871 126.399C314.563 126.115 314.409 125.701 314.409 125.156V122.068L320.267 121.216L321.935 110.743C322.053 110.341 322.255 110.022 322.539 109.785C322.823 109.525 323.201 109.394 323.675 109.394H327.58V121.287H352.856V157ZM354.418 109.678C354.418 110.365 354.276 111.016 353.992 111.631C353.731 112.223 353.364 112.755 352.891 113.228C352.418 113.678 351.862 114.045 351.223 114.329C350.607 114.589 349.956 114.719 349.27 114.719C348.584 114.719 347.933 114.589 347.318 114.329C346.726 114.045 346.193 113.678 345.72 113.228C345.27 112.755 344.904 112.223 344.62 111.631C344.359 111.016 344.229 110.365 344.229 109.678C344.229 108.968 344.359 108.306 344.62 107.69C344.904 107.051 345.27 106.507 345.72 106.057C346.193 105.584 346.726 105.217 347.318 104.957C347.933 104.673 348.584 104.531 349.27 104.531C349.956 104.531 350.607 104.673 351.223 104.957C351.862 105.217 352.418 105.584 352.891 106.057C353.364 106.507 353.731 107.051 353.992 107.69C354.276 108.306 354.418 108.968 354.418 109.678ZM369.637 125.582C370.418 124.778 371.223 124.056 372.051 123.417C372.903 122.754 373.802 122.186 374.749 121.713C375.696 121.24 376.702 120.873 377.767 120.612C378.832 120.352 379.991 120.222 381.246 120.222C383.234 120.222 384.973 120.553 386.464 121.216C387.979 121.879 389.245 122.813 390.263 124.02C391.304 125.227 392.085 126.683 392.606 128.387C393.126 130.067 393.387 131.925 393.387 133.96V157H385.79V133.96C385.79 131.523 385.222 129.629 384.086 128.28C382.973 126.931 381.269 126.257 378.974 126.257C377.27 126.257 375.684 126.647 374.217 127.428C372.773 128.209 371.412 129.274 370.134 130.623V157H362.502V120.79H367.117C368.158 120.79 368.821 121.275 369.105 122.245L369.637 125.582ZM415.222 138.575C417.589 138.575 419.364 137.972 420.547 136.765C421.731 135.558 422.322 133.984 422.322 132.043C422.322 130.055 421.731 128.482 420.547 127.322C419.364 126.162 417.589 125.582 415.222 125.582C412.879 125.582 411.104 126.162 409.897 127.322C408.714 128.482 408.122 130.055 408.122 132.043C408.122 132.99 408.276 133.866 408.584 134.67C408.892 135.475 409.341 136.173 409.933 136.765C410.525 137.333 411.258 137.783 412.134 138.114C413.033 138.422 414.063 138.575 415.222 138.575ZM425.837 158.775C425.837 157.97 425.6 157.331 425.127 156.858C424.677 156.361 424.062 155.982 423.281 155.722C422.5 155.438 421.589 155.237 420.547 155.118C419.506 154.976 418.394 154.882 417.21 154.834C416.051 154.763 414.856 154.704 413.625 154.657C412.418 154.586 411.246 154.468 410.11 154.302C408.974 154.894 408.04 155.604 407.306 156.432C406.596 157.26 406.241 158.219 406.241 159.308C406.241 160.018 406.418 160.68 406.773 161.296C407.152 161.911 407.72 162.443 408.477 162.893C409.258 163.343 410.241 163.698 411.424 163.958C412.631 164.218 414.075 164.349 415.755 164.349C419.116 164.349 421.636 163.828 423.316 162.787C424.997 161.745 425.837 160.408 425.837 158.775ZM433.505 122.103V124.943C433.505 125.89 432.937 126.47 431.801 126.683L428.18 127.286C428.795 128.659 429.103 130.186 429.103 131.866C429.103 133.641 428.748 135.25 428.038 136.694C427.352 138.138 426.393 139.368 425.162 140.386C423.932 141.404 422.464 142.185 420.76 142.729C419.056 143.273 417.21 143.545 415.222 143.545C414.465 143.545 413.72 143.51 412.986 143.439C412.276 143.344 411.578 143.226 410.891 143.084C410.205 143.486 409.696 143.912 409.365 144.362C409.034 144.812 408.868 145.273 408.868 145.746C408.868 146.527 409.211 147.107 409.897 147.486C410.584 147.865 411.483 148.137 412.595 148.302C413.731 148.468 415.021 148.575 416.465 148.622C417.909 148.669 419.376 148.752 420.867 148.87C422.358 148.989 423.825 149.19 425.269 149.474C426.713 149.734 427.991 150.184 429.103 150.823C430.239 151.438 431.15 152.278 431.836 153.343C432.523 154.408 432.866 155.793 432.866 157.497C432.866 159.059 432.475 160.586 431.694 162.077C430.913 163.568 429.777 164.893 428.286 166.053C426.819 167.212 425.02 168.135 422.89 168.822C420.76 169.532 418.335 169.887 415.613 169.887C412.915 169.887 410.56 169.626 408.548 169.106C406.56 168.585 404.892 167.875 403.543 166.976C402.218 166.1 401.224 165.082 400.561 163.923C399.922 162.763 399.602 161.556 399.602 160.302C399.602 158.598 400.135 157.142 401.2 155.935C402.289 154.728 403.756 153.781 405.602 153.095C404.608 152.622 403.803 151.971 403.188 151.142C402.596 150.314 402.3 149.225 402.3 147.877C402.3 146.811 402.691 145.699 403.472 144.539C404.253 143.38 405.424 142.398 406.986 141.593C405.188 140.599 403.768 139.285 402.726 137.652C401.685 135.996 401.164 134.067 401.164 131.866C401.164 130.067 401.508 128.446 402.194 127.002C402.904 125.559 403.886 124.328 405.14 123.31C406.395 122.293 407.874 121.512 409.578 120.967C411.306 120.423 413.187 120.151 415.222 120.151C418.346 120.151 421.068 120.802 423.387 122.103H433.505Z" fill="#4F4BEC"/>
</svg>
