<svg width="434" height="181" viewBox="0 0 434 181" fill="none" xmlns="http://www.w3.org/2000/svg">
<path fill-rule="evenodd" clip-rule="evenodd" d="M158 150.784C172.304 134.779 181 113.655 181 90.5C181 67.3451 172.304 46.2212 158 30.216V50.2727H158.002V131H158V150.784ZM141 165.611C126.576 175.328 109.2 181 90.5 181C40.5182 181 0 140.482 0 90.5C0 40.5182 40.5182 0 90.5 0C109.2 0 126.576 5.67177 141 15.3889V50.2727H140.974V83.5806H106.326V50.2727H89.2582V131H106.326V97.6527H140.974V131H141V165.611Z" fill="url(#paint0_linear)"/>
<path d="M238.522 46.677C238.309 46.9373 238.096 47.1503 237.883 47.316C237.694 47.458 237.41 47.529 237.031 47.529C236.653 47.529 236.25 47.387 235.824 47.103C235.422 46.7953 234.901 46.4758 234.262 46.1445C233.647 45.7895 232.89 45.47 231.99 45.186C231.115 44.8783 230.026 44.7245 228.724 44.7245C227.02 44.7245 225.517 45.0322 224.216 45.6475C222.914 46.2628 221.825 47.1385 220.95 48.2745C220.098 49.4105 219.447 50.795 218.997 52.428C218.548 54.061 218.323 55.8952 218.323 57.9305C218.323 60.0368 218.559 61.9183 219.033 63.575C219.506 65.208 220.181 66.5925 221.056 67.7285C221.932 68.8408 222.997 69.6928 224.251 70.2845C225.506 70.8525 226.902 71.1365 228.44 71.1365C229.931 71.1365 231.162 70.959 232.132 70.604C233.103 70.2253 233.907 69.823 234.546 69.397C235.185 68.971 235.718 68.5805 236.144 68.2255C236.57 67.8468 237.008 67.6575 237.457 67.6575C238.025 67.6575 238.463 67.8705 238.771 68.2965L240.759 70.8525C239.93 71.8702 238.996 72.734 237.954 73.444C236.937 74.154 235.848 74.7338 234.688 75.1835C233.529 75.6332 232.31 75.9645 231.032 76.1775C229.777 76.3905 228.499 76.497 227.198 76.497C224.949 76.497 222.843 76.0828 220.879 75.2545C218.938 74.4262 217.246 73.2192 215.802 71.6335C214.382 70.0478 213.258 68.1072 212.43 65.8115C211.601 63.4922 211.187 60.8652 211.187 57.9305C211.187 55.2562 211.554 52.783 212.288 50.511C213.045 48.239 214.146 46.2865 215.589 44.6535C217.057 42.9968 218.855 41.707 220.985 40.784C223.115 39.8373 225.553 39.364 228.298 39.364C230.878 39.364 233.15 39.7782 235.114 40.6065C237.079 41.4348 238.83 42.6063 240.368 44.121L238.522 46.677ZM263.737 51.2565C265.654 51.2565 267.334 51.008 268.778 50.511C270.245 50.014 271.464 49.3158 272.434 48.4165C273.428 47.4935 274.174 46.4048 274.671 45.1505C275.168 43.8725 275.416 42.4643 275.416 40.926C275.416 37.8257 274.446 35.388 272.505 33.613C270.588 31.838 267.665 30.9505 263.737 30.9505H255.856V51.2565H263.737ZM263.737 25.022C267.003 25.022 269.843 25.4007 272.257 26.158C274.671 26.9153 276.671 27.9922 278.256 29.3885C279.842 30.7612 281.013 32.4297 281.771 34.394C282.552 36.3583 282.942 38.5357 282.942 40.926C282.942 43.3163 282.528 45.5173 281.7 47.529C280.871 49.517 279.653 51.2328 278.043 52.6765C276.434 54.1202 274.422 55.2443 272.008 56.049C269.618 56.83 266.861 57.2205 263.737 57.2205H255.856V76H248.294V25.022H263.737ZM308.136 59.9895C305.32 60.0842 302.929 60.309 300.965 60.664C299.001 60.9953 297.403 61.445 296.173 62.013C294.942 62.581 294.054 63.2555 293.51 64.0365C292.966 64.7938 292.694 65.6458 292.694 66.5925C292.694 67.4918 292.836 68.2728 293.12 68.9355C293.427 69.5745 293.83 70.107 294.327 70.533C294.847 70.9353 295.451 71.2312 296.137 71.4205C296.823 71.6098 297.569 71.7045 298.374 71.7045C299.439 71.7045 300.409 71.598 301.285 71.385C302.184 71.172 303.024 70.8762 303.805 70.4975C304.586 70.0952 305.332 69.61 306.042 69.042C306.752 68.474 307.45 67.8232 308.136 67.0895V59.9895ZM287.83 44.973C289.842 43.056 292.019 41.6242 294.362 40.6775C296.729 39.7308 299.32 39.2575 302.137 39.2575C304.196 39.2575 306.018 39.6007 307.604 40.287C309.189 40.9497 310.526 41.8845 311.615 43.0915C312.704 44.2985 313.52 45.7422 314.065 47.4225C314.633 49.1028 314.917 50.9607 314.917 52.996V76H311.828C311.142 76 310.621 75.8935 310.266 75.6805C309.911 75.4438 309.627 75.0178 309.414 74.4025L308.669 71.243C307.746 72.095 306.834 72.8523 305.935 73.515C305.036 74.154 304.089 74.7102 303.095 75.1835C302.125 75.6332 301.083 75.9763 299.971 76.213C298.859 76.4497 297.628 76.568 296.279 76.568C294.859 76.568 293.522 76.3787 292.268 76C291.037 75.5977 289.96 74.9942 289.037 74.1895C288.114 73.3848 287.38 72.379 286.836 71.172C286.315 69.965 286.055 68.5568 286.055 66.9475C286.055 65.5275 286.434 64.1667 287.191 62.865C287.972 61.5397 289.226 60.3563 290.954 59.315C292.705 58.2737 294.977 57.4217 297.77 56.759C300.586 56.0963 304.042 55.7177 308.136 55.623V52.996C308.136 50.2743 307.556 48.239 306.397 46.89C305.237 45.541 303.533 44.8665 301.285 44.8665C299.77 44.8665 298.492 45.0558 297.451 45.4345C296.433 45.8132 295.545 46.2392 294.788 46.7125C294.054 47.1622 293.404 47.5763 292.836 47.955C292.291 48.3337 291.723 48.523 291.132 48.523C290.658 48.523 290.244 48.3928 289.889 48.1325C289.558 47.8722 289.286 47.5645 289.073 47.2095L287.83 44.973ZM330.68 44.9375C331.461 44.1092 332.278 43.3518 333.13 42.6655C333.982 41.9792 334.881 41.3993 335.828 40.926C336.798 40.429 337.828 40.0503 338.916 39.79C340.029 39.506 341.212 39.364 342.466 39.364C344.454 39.364 346.194 39.6953 347.685 40.358C349.199 41.0207 350.466 41.9555 351.483 43.1625C352.501 44.3458 353.27 45.7777 353.791 47.458C354.311 49.1383 354.572 50.9962 354.572 53.0315V76H347.614V53.0315C347.614 50.4518 347.022 48.452 345.839 47.032C344.655 45.5883 342.845 44.8665 340.407 44.8665C338.632 44.8665 336.964 45.2925 335.402 46.1445C333.863 46.9728 332.432 48.1088 331.106 49.5525V76H324.184V39.932H328.337C329.308 39.932 329.911 40.3935 330.148 41.3165L330.68 44.9375ZM387.805 53.9545C387.805 52.5818 387.604 51.3157 387.201 50.156C386.823 48.9963 386.255 47.9905 385.497 47.1385C384.74 46.2865 383.817 45.6238 382.728 45.1505C381.64 44.6772 380.385 44.4405 378.965 44.4405C376.054 44.4405 373.759 45.2807 372.078 46.961C370.422 48.6413 369.368 50.9725 368.919 53.9545H387.805ZM393.52 70.8525C392.668 71.8465 391.686 72.7103 390.574 73.444C389.461 74.154 388.278 74.7338 387.024 75.1835C385.769 75.6332 384.468 75.9645 383.119 76.1775C381.793 76.3905 380.48 76.497 379.178 76.497C376.693 76.497 374.386 76.0828 372.256 75.2545C370.149 74.4025 368.315 73.1718 366.753 71.5625C365.215 69.9295 364.008 67.9178 363.132 65.5275C362.28 63.1135 361.854 60.3445 361.854 57.2205C361.854 54.7118 362.245 52.3807 363.026 50.227C363.807 48.0497 364.919 46.1563 366.363 44.547C367.83 42.9377 369.617 41.6715 371.723 40.7485C373.83 39.8255 376.196 39.364 378.823 39.364C381.024 39.364 383.048 39.7308 384.894 40.4645C386.763 41.1745 388.373 42.2158 389.722 43.5885C391.071 44.9612 392.124 46.6533 392.881 48.665C393.662 50.6767 394.053 52.9723 394.053 55.552C394.053 56.617 393.934 57.3388 393.698 57.7175C393.461 58.0725 393.023 58.25 392.384 58.25H368.741C368.812 60.4037 369.12 62.2852 369.664 63.8945C370.209 65.4802 370.954 66.8055 371.901 67.8705C372.871 68.9355 374.019 69.7283 375.344 70.249C376.67 70.7697 378.149 71.03 379.782 71.03C381.32 71.03 382.645 70.8525 383.758 70.4975C384.894 70.1425 385.864 69.7638 386.669 69.3615C387.497 68.9355 388.183 68.545 388.728 68.19C389.296 67.835 389.793 67.6575 390.219 67.6575C390.787 67.6575 391.225 67.8705 391.532 68.2965L393.52 70.8525ZM408.593 23.602V76H401.635V23.602H408.593Z" fill="url(#paint1_linear)"/>
<path d="M236.238 104.022V155H228.676V132.031H202.087V155H194.49V104.022H202.087V126.529H228.676V104.022H236.238ZM261.691 118.364C264.342 118.364 266.732 118.802 268.862 119.677C271.016 120.529 272.838 121.772 274.329 123.405C275.844 125.014 277.003 126.967 277.808 129.262C278.613 131.534 279.015 134.09 279.015 136.93C279.015 139.77 278.613 142.338 277.808 144.634C277.003 146.93 275.844 148.882 274.329 150.491C272.838 152.101 271.016 153.343 268.862 154.219C266.732 155.071 264.342 155.497 261.691 155.497C259.017 155.497 256.603 155.071 254.449 154.219C252.319 153.343 250.497 152.101 248.982 150.491C247.467 148.882 246.296 146.93 245.468 144.634C244.663 142.338 244.261 139.77 244.261 136.93C244.261 134.09 244.663 131.534 245.468 129.262C246.296 126.967 247.467 125.014 248.982 123.405C250.497 121.772 252.319 120.529 254.449 119.677C256.603 118.802 259.017 118.364 261.691 118.364ZM261.691 150.101C265.099 150.101 267.643 148.953 269.324 146.657C271.004 144.362 271.844 141.131 271.844 136.966C271.844 132.801 271.004 129.57 269.324 127.274C267.643 124.955 265.099 123.795 261.691 123.795C258.236 123.795 255.656 124.955 253.952 127.274C252.272 129.57 251.432 132.801 251.432 136.966C251.432 141.131 252.272 144.362 253.952 146.657C255.656 148.953 258.236 150.101 261.691 150.101ZM308.007 125.144C307.818 125.452 307.616 125.677 307.403 125.819C307.19 125.937 306.918 125.996 306.587 125.996C306.208 125.996 305.782 125.866 305.309 125.606C304.859 125.346 304.303 125.062 303.64 124.754C303.001 124.446 302.244 124.162 301.368 123.902C300.493 123.642 299.451 123.511 298.244 123.511C297.25 123.511 296.339 123.642 295.511 123.902C294.706 124.139 294.02 124.482 293.452 124.931C292.884 125.357 292.446 125.878 292.138 126.493C291.831 127.085 291.677 127.724 291.677 128.41C291.677 129.31 291.937 130.055 292.458 130.647C293.002 131.239 293.7 131.747 294.552 132.173C295.428 132.599 296.41 132.99 297.499 133.345C298.611 133.676 299.735 134.031 300.871 134.41C302.031 134.789 303.155 135.226 304.244 135.723C305.356 136.197 306.338 136.8 307.19 137.534C308.066 138.244 308.764 139.108 309.285 140.125C309.829 141.143 310.101 142.386 310.101 143.853C310.101 145.533 309.794 147.095 309.178 148.539C308.587 149.959 307.699 151.19 306.516 152.231C305.356 153.272 303.913 154.089 302.185 154.68C300.457 155.272 298.481 155.568 296.256 155.568C293.771 155.568 291.476 155.154 289.369 154.325C287.263 153.497 285.5 152.444 284.08 151.166L285.713 148.503C285.902 148.172 286.139 147.924 286.423 147.758C286.707 147.569 287.086 147.474 287.559 147.474C288.009 147.474 288.47 147.64 288.943 147.971C289.417 148.302 289.985 148.669 290.647 149.071C291.31 149.45 292.115 149.805 293.061 150.136C294.008 150.444 295.191 150.598 296.611 150.598C297.795 150.598 298.824 150.456 299.7 150.172C300.576 149.864 301.297 149.462 301.865 148.965C302.457 148.444 302.895 147.853 303.179 147.19C303.463 146.527 303.605 145.829 303.605 145.095C303.605 144.149 303.333 143.368 302.788 142.752C302.268 142.113 301.57 141.569 300.694 141.119C299.842 140.67 298.86 140.279 297.747 139.948C296.635 139.617 295.499 139.262 294.339 138.883C293.18 138.504 292.044 138.066 290.931 137.569C289.819 137.072 288.825 136.445 287.949 135.688C287.097 134.931 286.399 134.008 285.855 132.919C285.334 131.83 285.074 130.505 285.074 128.943C285.074 127.547 285.358 126.209 285.926 124.931C286.518 123.653 287.358 122.529 288.446 121.559C289.559 120.589 290.92 119.819 292.529 119.251C294.162 118.66 296.02 118.364 298.102 118.364C300.493 118.364 302.646 118.743 304.563 119.5C306.504 120.257 308.161 121.299 309.533 122.624L308.007 125.144ZM351.783 155H344.825V124.541H326.72V145.663C326.72 147.083 327.064 148.148 327.75 148.858C328.46 149.545 329.359 149.888 330.448 149.888C331.087 149.888 331.631 149.805 332.081 149.639C332.554 149.474 332.957 149.296 333.288 149.107C333.619 148.894 333.903 148.705 334.14 148.539C334.377 148.373 334.59 148.29 334.779 148.29C335.016 148.29 335.193 148.35 335.311 148.468C335.453 148.563 335.595 148.728 335.737 148.965L337.796 152.302C336.66 153.343 335.311 154.148 333.749 154.716C332.187 155.284 330.566 155.568 328.886 155.568C325.975 155.568 323.727 154.751 322.141 153.118C320.579 151.485 319.798 149.154 319.798 146.125V124.541H315.609C315.207 124.541 314.863 124.423 314.579 124.186C314.319 123.926 314.189 123.547 314.189 123.05V120.245L320.082 119.429L321.608 108.672C321.703 108.27 321.881 107.962 322.141 107.749C322.425 107.513 322.78 107.394 323.206 107.394H326.72V119.5H351.783V155ZM353.345 107.572C353.345 108.211 353.215 108.826 352.955 109.418C352.695 109.986 352.34 110.495 351.89 110.944C351.464 111.37 350.955 111.714 350.363 111.974C349.772 112.211 349.156 112.329 348.517 112.329C347.878 112.329 347.275 112.211 346.707 111.974C346.139 111.714 345.63 111.37 345.18 110.944C344.754 110.495 344.411 109.986 344.151 109.418C343.914 108.826 343.796 108.211 343.796 107.572C343.796 106.909 343.914 106.282 344.151 105.69C344.411 105.099 344.754 104.59 345.18 104.164C345.63 103.714 346.139 103.371 346.707 103.134C347.275 102.874 347.878 102.744 348.517 102.744C349.156 102.744 349.772 102.874 350.363 103.134C350.955 103.371 351.464 103.714 351.89 104.164C352.34 104.59 352.695 105.099 352.955 105.69C353.215 106.282 353.345 106.909 353.345 107.572ZM368.33 123.937C369.111 123.109 369.927 122.352 370.779 121.665C371.631 120.979 372.531 120.399 373.477 119.926C374.448 119.429 375.477 119.05 376.566 118.79C377.678 118.506 378.861 118.364 380.116 118.364C382.104 118.364 383.843 118.695 385.334 119.358C386.849 120.021 388.115 120.955 389.133 122.162C390.15 123.346 390.92 124.778 391.44 126.458C391.961 128.138 392.221 129.996 392.221 132.031V155H385.263V132.031C385.263 129.452 384.672 127.452 383.488 126.032C382.305 124.588 380.494 123.866 378.057 123.866C376.282 123.866 374.613 124.292 373.051 125.144C371.513 125.973 370.081 127.109 368.756 128.552V155H361.833V118.932H365.987C366.957 118.932 367.561 119.393 367.797 120.316L368.33 123.937ZM414.236 137.001C415.467 137.001 416.544 136.836 417.467 136.504C418.413 136.173 419.194 135.712 419.81 135.12C420.449 134.505 420.922 133.771 421.23 132.919C421.561 132.067 421.727 131.132 421.727 130.114C421.727 128.032 421.088 126.375 419.81 125.144C418.555 123.89 416.698 123.263 414.236 123.263C411.799 123.263 409.941 123.89 408.663 125.144C407.408 126.375 406.781 128.032 406.781 130.114C406.781 131.132 406.935 132.067 407.243 132.919C407.574 133.747 408.047 134.469 408.663 135.084C409.302 135.676 410.083 136.149 411.006 136.504C411.952 136.836 413.029 137.001 414.236 137.001ZM425.277 156.882C425.277 156.03 425.04 155.355 424.567 154.858C424.093 154.337 423.443 153.935 422.614 153.651C421.81 153.343 420.863 153.13 419.774 153.012C418.686 152.87 417.538 152.763 416.331 152.692C415.147 152.621 413.929 152.562 412.674 152.515C411.42 152.444 410.213 152.326 409.053 152.16C407.823 152.775 406.805 153.521 406 154.396C405.219 155.272 404.829 156.302 404.829 157.485C404.829 158.242 405.018 158.952 405.397 159.615C405.799 160.278 406.403 160.846 407.207 161.319C408.036 161.816 409.065 162.195 410.296 162.455C411.55 162.739 413.041 162.881 414.769 162.881C416.473 162.881 417.976 162.727 419.277 162.42C420.579 162.136 421.668 161.721 422.543 161.177C423.443 160.656 424.117 160.029 424.567 159.296C425.04 158.562 425.277 157.757 425.277 156.882ZM432.306 120.281V122.872C432.306 123.724 431.773 124.257 430.708 124.47L426.839 125.038C427.17 125.772 427.43 126.553 427.62 127.381C427.809 128.186 427.904 129.038 427.904 129.937C427.904 131.712 427.561 133.321 426.874 134.765C426.188 136.185 425.241 137.404 424.034 138.421C422.827 139.439 421.384 140.22 419.703 140.764C418.047 141.309 416.224 141.581 414.236 141.581C412.603 141.581 411.077 141.403 409.657 141.048C408.947 141.474 408.402 141.948 408.024 142.468C407.669 142.965 407.491 143.462 407.491 143.959C407.491 144.788 407.834 145.403 408.521 145.805C409.231 146.208 410.142 146.504 411.254 146.693C412.39 146.859 413.68 146.965 415.124 147.012C416.591 147.06 418.07 147.143 419.561 147.261C421.076 147.356 422.555 147.545 423.999 147.829C425.466 148.089 426.756 148.527 427.868 149.142C429.004 149.734 429.915 150.562 430.602 151.627C431.312 152.669 431.667 154.03 431.667 155.71C431.667 157.272 431.276 158.787 430.495 160.254C429.738 161.721 428.626 163.023 427.158 164.159C425.691 165.295 423.904 166.206 421.798 166.893C419.691 167.579 417.301 167.922 414.627 167.922C411.952 167.922 409.621 167.662 407.633 167.141C405.669 166.62 404.024 165.922 402.699 165.047C401.397 164.171 400.415 163.153 399.752 161.994C399.113 160.834 398.794 159.627 398.794 158.373C398.794 156.621 399.338 155.142 400.427 153.935C401.515 152.704 403.018 151.746 404.935 151.059C403.894 150.586 403.066 149.947 402.45 149.142C401.835 148.314 401.527 147.225 401.527 145.877C401.527 145.356 401.622 144.823 401.811 144.279C402.001 143.711 402.285 143.155 402.663 142.61C403.066 142.042 403.551 141.51 404.119 141.013C404.71 140.516 405.385 140.066 406.142 139.664C404.367 138.67 402.971 137.356 401.953 135.723C400.936 134.067 400.427 132.138 400.427 129.937C400.427 128.162 400.77 126.564 401.456 125.144C402.143 123.724 403.089 122.506 404.296 121.488C405.527 120.47 406.982 119.689 408.663 119.145C410.367 118.601 412.225 118.329 414.236 118.329C417.36 118.329 420.046 118.979 422.295 120.281H432.306Z" fill="url(#paint2_linear)"/>
<defs>
<linearGradient id="paint0_linear" x1="-6.83833e-07" y1="26.2911" x2="223.767" y2="81.261" gradientUnits="userSpaceOnUse">
<stop stop-color="#5041EB"/>
<stop offset="1" stop-color="#48A4FA"/>
</linearGradient>
<linearGradient id="paint1_linear" x1="208" y1="18.3466" x2="407.374" y2="137.046" gradientUnits="userSpaceOnUse">
<stop stop-color="#5041EB"/>
<stop offset="1" stop-color="#48A4FA"/>
</linearGradient>
<linearGradient id="paint2_linear" x1="188" y1="97.3466" x2="402.205" y2="249.638" gradientUnits="userSpaceOnUse">
<stop stop-color="#5041EB"/>
<stop offset="1" stop-color="#48A4FA"/>
</linearGradient>
</defs>
</svg>
