<svg width="181" height="181" viewBox="0 0 181 181" fill="none" xmlns="http://www.w3.org/2000/svg">
<path fill-rule="evenodd" clip-rule="evenodd" d="M158 150.784C172.304 134.779 181 113.655 181 90.5C181 67.3451 172.304 46.2212 158 30.216V50.2727H158.002V131H158V150.784ZM141 165.611C126.576 175.328 109.2 181 90.5 181C40.5182 181 0 140.482 0 90.5C0 40.5182 40.5182 0 90.5 0C109.2 0 126.576 5.67177 141 15.3889V50.2727H140.974V83.5806H106.326V50.2727H89.2582V131H106.326V97.6527H140.974V131H141V165.611Z" fill="#370EDB"/>
</svg>
