<svg width="513" height="475" viewBox="0 0 513 475" fill="none" xmlns="http://www.w3.org/2000/svg">
<g clip-path="url(#clip0)">
<path opacity="0.18" d="M68.6 53.55C86.18 24.12 124.38 14.34 158.66 14.35C192.94 14.36 227.66 21.41 261.19 14.35C276.66 11.07 291.59 4.83 307.37 4C340.89 2.23 370.27 24.66 396.25 45.89L443.77 84.74C463.02 100.48 482.77 116.82 494.44 138.79C504.615 158.124 507.795 180.38 503.44 201.79C497.96 228.31 480.99 253.42 485.23 280.17C487.36 293.61 494.7 305.57 499.47 318.32C504.266 331.138 506.464 344.782 505.936 358.458C505.408 372.134 502.165 385.568 496.395 397.978C490.625 410.388 482.443 421.527 472.327 430.745C462.211 439.962 450.362 447.076 437.47 451.67C401.63 464.43 362.24 456.59 324.55 451.43C252.74 441.59 179.98 442.05 107.63 437.82C95.08 437.09 81.73 435.91 71.8 428.2C57.51 417.1 55.29 396.67 54.88 378.57C53.79 330.87 57.24 283.17 62 235.69C65.5 200.83 63.43 174.13 52.49 141.38C44.84 118.45 55.8 74.97 68.6 53.55Z" fill="white"/>
<path d="M215.98 72.63L220.18 79.93L249.61 66.83L252.61 71.48C252.61 71.48 222.05 101.9 220.22 101.48C218.39 101.06 206.41 79.8 206.41 79.8L215.98 72.63Z" fill="url(#paint0_linear)"/>
<path d="M205.14 44.72L218.37 70.63L206.83 80.77L205.14 44.72Z" fill="#5041EB"/>
<path opacity="0.69" d="M205.14 44.72L218.37 70.63L206.83 80.77L205.14 44.72Z" fill="url(#paint1_linear)"/>
<path d="M230.86 93.54L238 44.72L266.54 44.34L257.15 93.92L230.86 93.54Z" fill="#5041EB"/>
<path d="M311.25 261.34H319.64V200.92C319.64 196.942 321.22 193.126 324.033 190.313C326.846 187.5 330.662 185.92 334.64 185.92H373.79V177.53H334.6C328.409 177.535 322.473 179.997 318.095 184.375C313.717 188.753 311.255 194.689 311.25 200.88V261.34Z" fill="#5041EB"/>
<path d="M311.44 261.34H319.83V200.92C319.83 196.942 321.41 193.126 324.223 190.313C327.036 187.5 330.852 185.92 334.83 185.92H373.99V177.53H334.78C328.591 177.538 322.657 180.001 318.281 184.378C313.906 188.756 311.445 194.691 311.44 200.88V261.34Z" fill="url(#paint2_linear)"/>
<path d="M208.8 133.32H58.98C39.8986 133.32 24.43 148.789 24.43 167.87V374.52C24.43 393.601 39.8986 409.07 58.98 409.07H208.8C227.881 409.07 243.35 393.601 243.35 374.52V167.87C243.35 148.789 227.881 133.32 208.8 133.32Z" fill="url(#paint3_linear)"/>
<path d="M231.94 379.13C231.943 378.02 232.385 376.955 233.17 376.17C233.955 375.385 235.02 374.943 236.13 374.94H273.06C277.03 374.927 280.832 373.341 283.634 370.529C286.437 367.717 288.01 363.91 288.01 359.94V320.83H296.41V359.98C296.41 363.046 295.806 366.083 294.633 368.916C293.459 371.749 291.739 374.323 289.571 376.491C287.403 378.659 284.829 380.379 281.996 381.553C279.163 382.726 276.126 383.33 273.06 383.33H236.18C235.625 383.335 235.075 383.231 234.56 383.022C234.046 382.813 233.579 382.505 233.184 382.114C232.79 381.724 232.477 381.259 232.264 380.747C232.05 380.234 231.94 379.685 231.94 379.13Z" fill="#5041EB"/>
<path d="M388.48 392.36V383.97H328.06C324.082 383.97 320.266 382.39 317.453 379.577C314.64 376.764 313.06 372.948 313.06 368.97V329.86H304.67V369.01C304.675 375.201 307.137 381.137 311.515 385.515C315.893 389.893 321.829 392.355 328.02 392.36H388.48Z" fill="#5041EB"/>
<path d="M231.94 379.13C231.943 378.02 232.385 376.955 233.17 376.17C233.955 375.385 235.02 374.943 236.13 374.94H273.06C277.03 374.927 280.832 373.341 283.634 370.529C286.437 367.717 288.01 363.91 288.01 359.94V320.83H296.41V359.98C296.41 363.046 295.806 366.083 294.633 368.916C293.459 371.749 291.739 374.323 289.571 376.491C287.403 378.659 284.829 380.379 281.996 381.553C279.163 382.726 276.126 383.33 273.06 383.33H236.18C235.625 383.335 235.075 383.231 234.56 383.022C234.046 382.813 233.579 382.505 233.184 382.114C232.79 381.724 232.477 381.259 232.264 380.747C232.05 380.234 231.94 379.685 231.94 379.13Z" fill="url(#paint4_linear)"/>
<path d="M388.48 392.36V383.97H328.06C324.082 383.97 320.266 382.39 317.453 379.577C314.64 376.764 313.06 372.948 313.06 368.97V329.86H304.67V369.01C304.675 375.201 307.137 381.137 311.515 385.515C315.893 389.893 321.829 392.355 328.02 392.36H388.48Z" fill="url(#paint5_linear)"/>
<path d="M512.42 460.41C512.424 462.276 512.06 464.124 511.348 465.849C510.637 467.575 509.593 469.142 508.275 470.463C506.956 471.784 505.391 472.832 503.667 473.547C501.944 474.262 500.096 474.63 498.23 474.63H28.66C25.1487 474.619 21.7661 473.307 19.1662 470.947C16.5663 468.587 14.9338 465.346 14.5843 461.853C14.2348 458.359 15.1931 454.859 17.274 452.031C19.3548 449.203 22.4104 447.246 25.85 446.54C26.7753 446.355 27.7165 446.262 28.66 446.26H498.23C501.987 446.26 505.59 447.75 508.25 450.402C510.91 453.055 512.409 456.654 512.42 460.41V460.41Z" fill="#5041EB"/>
<path d="M214.6 391.07H33.39V452.52H214.6V391.07Z" fill="#5041EB"/>
<path d="M214.6 391.07H33.39V436.12H214.6V391.07Z" fill="url(#paint6_linear)"/>
<path d="M184.37 133.32H34.55C15.4686 133.32 0 148.789 0 167.87V374.53C0 393.611 15.4686 409.08 34.55 409.08H184.37C203.451 409.08 218.92 393.611 218.92 374.53V167.87C218.92 148.789 203.451 133.32 184.37 133.32Z" fill="#DAD8F8"/>
<path d="M218.92 296.56V374.56C218.917 383.722 215.276 392.509 208.798 398.988C202.319 405.466 193.532 409.107 184.37 409.11H34.55C30.0107 409.109 25.5161 408.213 21.3229 406.474C17.1298 404.736 13.3202 402.188 10.1118 398.977C6.90339 395.766 4.35903 391.954 2.62403 387.759C0.889028 383.565 -0.00262133 379.069 5.78841e-06 374.53V296.53C5.78841e-06 287.367 3.64008 278.579 10.1195 272.099C16.5988 265.62 25.3868 261.98 34.55 261.98H184.37C188.91 261.98 193.405 262.875 197.599 264.613C201.792 266.351 205.603 268.899 208.811 272.11C212.02 275.322 214.564 279.134 216.299 283.329C218.033 287.524 218.924 292.02 218.92 296.56V296.56Z" fill="url(#paint7_linear)"/>
<path d="M351.99 250.15H261.61V335.4H351.99V250.15Z" fill="#435276"/>
<path d="M351.64 238.05H263.5C258.485 238.05 254.42 242.115 254.42 247.13V262.65C254.42 267.665 258.485 271.73 263.5 271.73H351.64C356.655 271.73 360.72 267.665 360.72 262.65V247.13C360.72 242.115 356.655 238.05 351.64 238.05Z" fill="#CBC6FF"/>
<path d="M351.64 276.99H263.5C258.485 276.99 254.42 281.055 254.42 286.07V301.59C254.42 306.605 258.485 310.67 263.5 310.67H351.64C356.655 310.67 360.72 306.605 360.72 301.59V286.07C360.72 281.055 356.655 276.99 351.64 276.99Z" fill="#CBC6FF"/>
<path d="M351.64 315.93H263.5C258.485 315.93 254.42 319.995 254.42 325.01V340.53C254.42 345.545 258.485 349.61 263.5 349.61H351.64C356.655 349.61 360.72 345.545 360.72 340.53V325.01C360.72 319.995 356.655 315.93 351.64 315.93Z" fill="#CBC6FF"/>
<path d="M303.89 238.23H295.5V177.81C295.5 173.832 293.92 170.016 291.107 167.203C288.294 164.39 284.478 162.81 280.5 162.81H235.61C234.496 162.81 233.428 162.368 232.64 161.58C231.852 160.792 231.41 159.724 231.41 158.61V158.61C231.413 157.498 231.856 156.432 232.644 155.647C233.431 154.861 234.498 154.42 235.61 154.42H280.54C283.607 154.419 286.644 155.022 289.477 156.195C292.311 157.368 294.885 159.088 297.054 161.256C299.222 163.425 300.942 165.999 302.115 168.833C303.288 171.666 303.891 174.703 303.89 177.77V238.23Z" fill="#5041EB"/>
<path d="M303.89 238.23H295.5V177.81C295.5 173.832 293.92 170.016 291.107 167.203C288.294 164.39 284.478 162.81 280.5 162.81H235.61C234.496 162.81 233.428 162.368 232.64 161.58C231.852 160.792 231.41 159.724 231.41 158.61V158.61C231.413 157.498 231.856 156.432 232.644 155.647C233.431 154.861 234.498 154.42 235.61 154.42H280.54C283.607 154.419 286.644 155.022 289.477 156.195C292.311 157.368 294.885 159.088 297.054 161.256C299.222 163.425 300.942 165.999 302.115 168.833C303.288 171.666 303.891 174.703 303.89 177.77V238.23Z" fill="url(#paint8_linear)"/>
<path d="M345.39 257.82C347.362 257.82 348.96 256.222 348.96 254.25C348.96 252.278 347.362 250.68 345.39 250.68C343.418 250.68 341.82 252.278 341.82 254.25C341.82 256.222 343.418 257.82 345.39 257.82Z" fill="url(#paint9_linear)"/>
<path d="M336.43 257.82C338.402 257.82 340 256.222 340 254.25C340 252.278 338.402 250.68 336.43 250.68C334.458 250.68 332.86 252.278 332.86 254.25C332.86 256.222 334.458 257.82 336.43 257.82Z" fill="url(#paint10_linear)"/>
<path d="M327.58 257.82C329.552 257.82 331.15 256.222 331.15 254.25C331.15 252.278 329.552 250.68 327.58 250.68C325.608 250.68 324.01 252.278 324.01 254.25C324.01 256.222 325.608 257.82 327.58 257.82Z" fill="url(#paint11_linear)"/>
<path d="M309.87 91.68H478.01C480.183 91.6813 482.335 91.2545 484.343 90.4238C486.351 89.5932 488.175 88.3751 489.712 86.8391C491.249 85.3031 492.468 83.4793 493.3 81.4719C494.132 79.4645 494.56 77.3129 494.56 75.14V75.14C494.56 65.9449 490.907 57.1265 484.405 50.6246C477.904 44.1227 469.085 40.47 459.89 40.47H445.71C445.71 31.2776 442.058 22.4617 435.558 15.9617C429.058 9.46167 420.242 5.81 411.05 5.81H388.18C383.628 5.80869 379.119 6.70422 374.913 8.44546C370.707 10.1867 366.885 12.7395 363.665 15.9581C360.446 19.1768 357.892 22.9981 356.149 27.2039C354.407 31.4097 353.51 35.9175 353.51 40.47V47.56H334.18C325.201 47.562 316.573 51.0475 310.112 57.2828C303.651 63.518 299.861 72.0167 299.54 80.99V80.99C299.49 82.3769 299.721 83.7596 300.218 85.0554C300.715 86.3511 301.468 87.5334 302.432 88.5313C303.397 89.5293 304.552 90.3225 305.83 90.8635C307.108 91.4045 308.482 91.6822 309.87 91.68V91.68Z" fill="white" fill-opacity="0.68"/>
<path d="M117.69 91.68H15.69C14.6215 91.6813 13.5633 91.472 12.5757 91.064C11.5882 90.656 10.6908 90.0574 9.93478 89.3023C9.17878 88.5472 8.57903 87.6506 8.16983 86.6635C7.76064 85.6765 7.55002 84.6185 7.55002 83.55V81.82C7.55001 76.3449 9.72224 71.0935 13.59 67.2182C17.4577 63.343 22.7049 61.1606 28.18 61.15H36.68C36.68 55.6671 38.8574 50.4085 42.7335 46.5306C46.6096 42.6526 51.8671 40.4727 57.35 40.47H70.98C73.6953 40.47 76.384 41.005 78.8924 42.0444C81.4009 43.0838 83.6799 44.6072 85.5995 46.5276C87.519 48.4481 89.0413 50.7279 90.0795 53.2369C91.1177 55.7458 91.6513 58.4347 91.65 61.15V65.37H103.18C108.535 65.3717 113.681 67.451 117.535 71.17C121.388 74.8891 123.648 79.958 123.84 85.31V85.31C123.87 86.136 123.732 86.9594 123.437 87.7311C123.141 88.5029 122.692 89.207 122.118 89.8016C121.544 90.3962 120.856 90.869 120.095 91.1917C119.335 91.5145 118.516 91.6805 117.69 91.68Z" fill="white"/>
<path d="M181.78 199.36H37.86C32.2046 199.36 27.62 203.945 27.62 209.6C27.62 215.255 32.2046 219.84 37.86 219.84H181.78C187.435 219.84 192.02 215.255 192.02 209.6C192.02 203.945 187.435 199.36 181.78 199.36Z" fill="white"/>
<path d="M132.73 203.32H38.79C35.1008 203.32 32.11 206.311 32.11 210V210.01C32.11 213.699 35.1008 216.69 38.79 216.69H132.73C136.419 216.69 139.41 213.699 139.41 210.01V210C139.41 206.311 136.419 203.32 132.73 203.32Z" fill="#5041EB"/>
<path d="M455.4 133.32H385.82C376.961 133.32 369.78 140.501 369.78 149.36V245.34C369.78 254.199 376.961 261.38 385.82 261.38H455.4C464.259 261.38 471.44 254.199 471.44 245.34V149.36C471.44 140.501 464.259 133.32 455.4 133.32Z" fill="#B2ABFF"/>
<path d="M455.39 133.32H434.66C425.801 133.32 418.62 140.501 418.62 149.36V245.34C418.62 254.199 425.801 261.38 434.66 261.38H455.39C464.249 261.38 471.43 254.199 471.43 245.34V149.36C471.43 140.501 464.249 133.32 455.39 133.32Z" fill="url(#paint12_linear)"/>
<path d="M471.44 149.37H369.78C369.773 147.265 370.182 145.179 370.984 143.232C371.785 141.285 372.962 139.515 374.449 138.024C375.935 136.533 377.701 135.35 379.645 134.543C381.59 133.735 383.675 133.32 385.78 133.32H455.35C457.463 133.308 459.557 133.715 461.512 134.517C463.467 135.319 465.244 136.5 466.74 137.992C468.236 139.484 469.421 141.258 470.228 143.211C471.035 145.164 471.447 147.257 471.44 149.37V149.37Z" fill="url(#paint13_linear)"/>
<path d="M471.44 245.34C471.44 247.445 471.024 249.53 470.217 251.475C469.41 253.419 468.227 255.185 466.736 256.671C465.245 258.158 463.475 259.335 461.528 260.136C459.581 260.938 457.495 261.347 455.39 261.34H385.82C381.577 261.34 377.507 259.654 374.506 256.654C371.506 253.653 369.82 249.583 369.82 245.34H471.44Z" fill="url(#paint14_linear)"/>
<path d="M500.93 438.97H385.18V292.14L471.09 291.14L502.25 314.36L500.93 438.97ZM389.6 434.63H496.6L497.88 316.63L469.68 295.63L389.6 296.53V434.63Z" fill="white"/>
<path d="M501.12 317.93L474.86 318.36L470.27 292.72L501.12 317.93ZM478.54 313.93L491.41 313.22L476.72 302.92L478.54 313.93Z" fill="white"/>
<path d="M481.25 324.1H408.86C407.457 324.1 406.32 325.237 406.32 326.64V326.65C406.32 328.053 407.457 329.19 408.86 329.19H481.25C482.653 329.19 483.79 328.053 483.79 326.65V326.64C483.79 325.237 482.653 324.1 481.25 324.1Z" fill="white" fill-opacity="0.68"/>
<path d="M481.25 340.91H408.86C407.457 340.91 406.32 342.047 406.32 343.45V343.46C406.32 344.863 407.457 346 408.86 346H481.25C482.653 346 483.79 344.863 483.79 343.46V343.45C483.79 342.047 482.653 340.91 481.25 340.91Z" fill="white" fill-opacity="0.68"/>
<path d="M481.25 357.72H408.86C407.457 357.72 406.32 358.857 406.32 360.26V360.27C406.32 361.673 407.457 362.81 408.86 362.81H481.25C482.653 362.81 483.79 361.673 483.79 360.27V360.26C483.79 358.857 482.653 357.72 481.25 357.72Z" fill="white" fill-opacity="0.68"/>
<path d="M481.25 374.52H408.86C407.457 374.52 406.32 375.657 406.32 377.06V377.07C406.32 378.473 407.457 379.61 408.86 379.61H481.25C482.653 379.61 483.79 378.473 483.79 377.07V377.06C483.79 375.657 482.653 374.52 481.25 374.52Z" fill="white" fill-opacity="0.68"/>
<path d="M481.25 391.33H408.86C407.457 391.33 406.32 392.467 406.32 393.87V393.88C406.32 395.283 407.457 396.42 408.86 396.42H481.25C482.653 396.42 483.79 395.283 483.79 393.88V393.87C483.79 392.467 482.653 391.33 481.25 391.33Z" fill="white" fill-opacity="0.68"/>
<path d="M481.25 408.14H408.86C407.457 408.14 406.32 409.277 406.32 410.68V410.69C406.32 412.093 407.457 413.23 408.86 413.23H481.25C482.653 413.23 483.79 412.093 483.79 410.69V410.68C483.79 409.277 482.653 408.14 481.25 408.14Z" fill="white" fill-opacity="0.68"/>
<path d="M254.83 214.36H232.75C232.256 214.357 231.783 214.159 231.434 213.809C231.086 213.458 230.89 212.984 230.89 212.49V212.49C230.89 211.997 231.086 211.524 231.435 211.175C231.784 210.826 232.257 210.63 232.75 210.63H254.83C259.409 210.627 263.799 208.807 267.035 205.568C270.272 202.33 272.09 197.939 272.09 193.36V156.25C272.09 150.89 274.219 145.749 278.009 141.959C281.799 138.169 286.94 136.04 292.3 136.04H336.53C341.449 136.037 346.166 134.082 349.644 130.604C353.122 127.126 355.077 122.409 355.08 117.49V87.49H358.81V117.49C358.807 123.398 356.459 129.064 352.281 133.241C348.104 137.419 342.438 139.767 336.53 139.77H292.3C287.929 139.77 283.737 141.506 280.647 144.597C277.556 147.687 275.82 151.879 275.82 156.25V193.36C275.82 198.928 273.609 204.268 269.673 208.206C265.737 212.144 260.398 214.357 254.83 214.36Z" fill="white"/>
<path d="M124.04 131.87H127.77V129.69C127.762 124.343 125.634 119.217 121.854 115.436C118.073 111.656 112.947 109.528 107.6 109.52H88.18C84.0566 109.512 80.1045 107.87 77.1897 104.953C74.275 102.037 72.6353 98.0834 72.63 93.96V90.9H68.9V93.96C68.9053 99.0727 70.938 103.975 74.5522 107.591C78.1665 111.207 83.0673 113.242 88.18 113.25H107.61C111.969 113.253 116.149 114.986 119.232 118.068C122.314 121.151 124.047 125.331 124.05 129.69L124.04 131.87Z" fill="white"/>
<path opacity="0.25" d="M458.84 161.02H383.99V211.44H458.84V161.02Z" fill="white"/>
<path d="M442.56 460.69C442.57 463.963 441.449 467.138 439.386 469.678C437.323 472.219 434.445 473.968 431.24 474.63H28.66C25.1487 474.619 21.7661 473.307 19.1662 470.947C16.5663 468.587 14.9338 465.346 14.5843 461.853C14.2348 458.359 15.1931 454.859 17.274 452.031C19.3548 449.203 22.4104 447.246 25.85 446.54H428.38C432.136 446.54 435.738 448.03 438.396 450.683C441.055 453.335 442.552 456.934 442.56 460.69V460.69Z" fill="url(#paint15_linear)"/>
<path d="M162.7 63.63V119.63H208.89V59.83C208.89 59.83 209.36 40.49 199.22 41.34C189.08 42.19 167.01 37.63 162.7 63.63Z" fill="#5041EB"/>
<path opacity="0.69" d="M162.7 63.63V119.63H208.89V59.83C208.89 59.83 209.36 40.49 199.22 41.34C189.08 42.19 167.01 37.63 162.7 63.63Z" fill="url(#paint16_linear)"/>
<path d="M208.89 119.55C208.89 119.55 238.89 120.49 247.39 134.55C255.89 148.61 267.67 184.13 267.67 184.13L256.96 188.35L237.81 164.13L208.89 119.55Z" fill="white"/>
<path d="M208.89 119.55C208.89 119.55 238.89 120.49 247.39 134.55C255.89 148.61 267.67 184.13 267.67 184.13L256.96 188.35L237.81 164.13L208.89 119.55Z" fill="url(#paint17_linear)"/>
<path d="M162.7 119.55C162.7 119.55 158.56 140.21 169.46 143.55C180.36 146.89 213.77 150.31 213.77 150.31L230.3 205.14L244.01 198.94C244.01 198.94 238.94 139.41 232.18 131.94C225.42 124.47 208.89 119.55 208.89 119.55H162.7Z" fill="white"/>
<path d="M186.18 24.43C186.658 21.5684 187.498 18.7794 188.68 16.13C189.883 13.8673 191.652 11.9554 193.815 10.5812C195.978 9.20699 198.461 8.41754 201.02 8.29C201.64 8.24788 202.262 8.29163 202.87 8.42C203.523 8.58776 204.145 8.86138 204.71 9.23C206.103 10.2003 207.29 11.4384 208.2 12.872C209.11 14.3056 209.725 15.9061 210.01 17.58C210.554 20.9262 210.638 24.331 210.26 27.7C210.01 31.38 209.34 35.7 206.06 37.37C203.78 38.52 201.06 37.93 198.59 37.17C198.344 37.0562 198.076 36.9973 197.805 36.9973C197.534 36.9973 197.266 37.0562 197.02 37.17C196.848 37.3229 196.708 37.5087 196.608 37.7165C196.508 37.9243 196.451 38.1499 196.44 38.38C195.88 41.96 197.03 45.68 196.21 49.2C196.158 49.6061 196.017 49.9959 195.798 50.3415C195.578 50.6871 195.285 50.9802 194.94 51.2C194.293 51.4288 193.587 51.4288 192.94 51.2C189.715 50.3643 186.742 48.7545 184.28 46.51C183.28 45.58 180.65 43.97 180.28 42.65C179.91 41.33 181.8 38.48 182.28 37.18C183.885 33.0292 185.188 28.7682 186.18 24.43V24.43Z" fill="url(#paint18_linear)"/>
<path opacity="0.69" d="M163.18 63.68L177.45 90.68L192.66 79.42C192.66 79.42 181.38 51.29 179.18 50.16C176.98 49.03 171.57 45.66 169.04 49.32C166.51 52.98 162.7 58.89 163.18 63.68Z" fill="url(#paint19_linear)"/>
<path d="M180.91 88.94C180.91 88.94 187.11 99.94 189.91 100.21C192.71 100.48 232.73 83.02 232.73 83.02L238.93 81.02C238.93 81.02 240.34 74.26 240.62 72.85C240.9 71.44 243.15 66.66 240.05 66.09C236.95 65.52 232.18 69.5 232.18 69.5L229.92 75.14L196.12 85.56L192.65 79.46L180.91 88.94Z" fill="url(#paint20_linear)"/>
<path d="M216.95 9.42C218.36 6.2 217.08 1.71 213.73 0.630001C210.97 -0.269999 208.04 1.3 205.14 1.36C202.67 1.36 200.31 0.360001 197.86 0.0700014C194.957 -0.179571 192.059 0.606213 189.68 2.28821C187.3 3.97021 185.593 6.43991 184.86 9.26C184.731 10.1323 184.486 10.9833 184.13 11.79C183.13 13.6 180.57 14.35 180.07 16.36C179.924 17.3483 180.063 18.3577 180.47 19.27L183.65 28.74C184.01 29.8 184.82 31.1 185.88 30.74C186.47 30.54 186.75 29.88 186.97 29.28L189.1 23.35C191.02 23.18 190.6 27.65 192.51 27.35C193.75 27.15 193.51 25.35 193.2 24.09C193.06 23.265 193.084 22.4205 193.271 21.6049C193.458 20.7894 193.805 20.0189 194.291 19.3377C194.777 18.6565 195.393 18.0781 196.103 17.6357C196.814 17.1934 197.604 16.8958 198.43 16.76C199.36 16.775 200.284 16.6225 201.16 16.31C201.701 15.9034 202.265 15.5294 202.85 15.19C205.2 14.31 207.69 16.28 210.37 15.26C213.233 14.2325 215.59 12.1408 216.95 9.42Z" fill="#3F3D56"/>
<path d="M239.5 200.76L241.47 206.12L256.68 205.84L237.53 214.57L233.87 202.74L239.5 200.76Z" fill="#5041EB"/>
<path d="M238.23 201.47L240.21 206.82L255.41 206.54L236.26 215.27L232.6 203.44L238.23 201.47Z" fill="url(#paint21_linear)"/>
<path d="M266.26 184.71L268.23 190.06L283.44 189.78L264.29 198.51L260.63 186.68L266.26 184.71Z" fill="#5041EB"/>
<path d="M264.99 185.41L266.96 190.77L282.18 190.48L263.02 199.22L259.36 187.38L264.99 185.41Z" fill="url(#paint22_linear)"/>
</g>
<defs>
<linearGradient id="paint0_linear" x1="206.4" y1="84.15" x2="252.6" y2="84.15" gradientUnits="userSpaceOnUse">
<stop stop-color="#ECC4D7"/>
<stop offset="0.42" stop-color="#EFD4D1"/>
<stop offset="1" stop-color="#F2EAC9"/>
</linearGradient>
<linearGradient id="paint1_linear" x1="205.14" y1="62.74" x2="218.37" y2="62.74" gradientUnits="userSpaceOnUse">
<stop offset="0.02" stop-color="white" stop-opacity="0"/>
<stop offset="0.58" stop-color="white" stop-opacity="0.39"/>
<stop offset="0.68" stop-color="white" stop-opacity="0.68"/>
<stop offset="1" stop-color="white"/>
</linearGradient>
<linearGradient id="paint2_linear" x1="342.71" y1="219.95" x2="344.96" y2="272.91" gradientUnits="userSpaceOnUse">
<stop stop-color="white"/>
<stop offset="0.99" stop-color="#DAD8F8"/>
</linearGradient>
<linearGradient id="paint3_linear" x1="5372.65" y1="74916.7" x2="53298.6" y2="74916.7" gradientUnits="userSpaceOnUse">
<stop stop-opacity="0"/>
<stop offset="0.99"/>
</linearGradient>
<linearGradient id="paint4_linear" x1="20244.1" y1="23952.8" x2="20039.2" y2="20572" gradientUnits="userSpaceOnUse">
<stop stop-color="#DAD8F8"/>
<stop offset="0.99" stop-color="white"/>
</linearGradient>
<linearGradient id="paint5_linear" x1="33100.4" y1="23629.9" x2="33126.9" y2="21394" gradientUnits="userSpaceOnUse">
<stop stop-color="#DAD8F8"/>
<stop offset="0.99" stop-color="white"/>
</linearGradient>
<linearGradient id="paint6_linear" x1="22557.8" y1="20006.7" x2="22549.1" y2="17472.2" gradientUnits="userSpaceOnUse">
<stop stop-color="#E5E5E5"/>
<stop offset="0.99" stop-color="#DAD8F8"/>
</linearGradient>
<linearGradient id="paint7_linear" x1="33372.2" y1="60907.5" x2="34550.3" y2="-6948.66" gradientUnits="userSpaceOnUse">
<stop/>
<stop offset="0.99" stop-color="#5041EB"/>
</linearGradient>
<linearGradient id="paint8_linear" x1="23022" y1="19257.2" x2="23185.7" y2="23174.5" gradientUnits="userSpaceOnUse">
<stop stop-color="white"/>
<stop offset="0.99" stop-color="#DAD8F8"/>
</linearGradient>
<linearGradient id="paint9_linear" x1="2782.41" y1="2066.03" x2="2833.39" y2="2066.03" gradientUnits="userSpaceOnUse">
<stop stop-opacity="0"/>
<stop offset="0.99"/>
</linearGradient>
<linearGradient id="paint10_linear" x1="2709.49" y1="2066.03" x2="2760.46" y2="2066.03" gradientUnits="userSpaceOnUse">
<stop stop-opacity="0"/>
<stop offset="0.99"/>
</linearGradient>
<linearGradient id="paint11_linear" x1="2637.44" y1="2066.03" x2="2688.49" y2="2066.03" gradientUnits="userSpaceOnUse">
<stop stop-opacity="0"/>
<stop offset="0.99"/>
</linearGradient>
<linearGradient id="paint12_linear" x1="21348.8" y1="25268.9" x2="33974.4" y2="25383.3" gradientUnits="userSpaceOnUse">
<stop stop-opacity="0"/>
<stop offset="0.99"/>
</linearGradient>
<linearGradient id="paint13_linear" x1="38538.1" y1="2459.16" x2="82672.2" y2="8601.91" gradientUnits="userSpaceOnUse">
<stop stop-opacity="0"/>
<stop offset="0.99"/>
</linearGradient>
<linearGradient id="paint14_linear" x1="47647.5" y1="4197.68" x2="47656.8" y2="5393.94" gradientUnits="userSpaceOnUse">
<stop stop-opacity="0"/>
<stop offset="0.99"/>
</linearGradient>
<linearGradient id="paint15_linear" x1="548.22" y1="486.67" x2="-257.75" y2="420.8" gradientUnits="userSpaceOnUse">
<stop stop-opacity="0"/>
<stop offset="0.41" stop-opacity="0.41"/>
<stop offset="0.99"/>
</linearGradient>
<linearGradient id="paint16_linear" x1="9748.75" y1="6760.93" x2="11882.4" y2="6760.93" gradientUnits="userSpaceOnUse">
<stop offset="0.02" stop-color="white" stop-opacity="0"/>
<stop offset="0.58" stop-color="white" stop-opacity="0.39"/>
<stop offset="0.68" stop-color="white" stop-opacity="0.68"/>
<stop offset="1" stop-color="white"/>
</linearGradient>
<linearGradient id="paint17_linear" x1="17808.8" y1="10854.4" x2="13760.5" y2="11380.9" gradientUnits="userSpaceOnUse">
<stop stop-color="#48A4FA"/>
<stop offset="0.99" stop-color="#5041EB"/>
</linearGradient>
<linearGradient id="paint18_linear" x1="6991.65" y1="1524.43" x2="7906.09" y2="1524.43" gradientUnits="userSpaceOnUse">
<stop stop-color="#ECC4D7"/>
<stop offset="0.42" stop-color="#EFD4D1"/>
<stop offset="1" stop-color="#F2EAC9"/>
</linearGradient>
<linearGradient id="paint19_linear" x1="6306.23" y1="3478.94" x2="7311.28" y2="3155.03" gradientUnits="userSpaceOnUse">
<stop offset="0.02" stop-color="white" stop-opacity="0"/>
<stop offset="0.58" stop-color="white" stop-opacity="0.39"/>
<stop offset="0.68" stop-color="white" stop-opacity="0.68"/>
<stop offset="1" stop-color="white"/>
</linearGradient>
<linearGradient id="paint20_linear" x1="13896.4" y1="3091.21" x2="17588.8" y2="3091.21" gradientUnits="userSpaceOnUse">
<stop stop-color="#ECC4D7"/>
<stop offset="0.42" stop-color="#EFD4D1"/>
<stop offset="1" stop-color="#F2EAC9"/>
</linearGradient>
<linearGradient id="paint21_linear" x1="5538.21" y1="3076.98" x2="6058.73" y2="3076.98" gradientUnits="userSpaceOnUse">
<stop stop-opacity="0"/>
<stop offset="0.99"/>
</linearGradient>
<linearGradient id="paint22_linear" x1="6177.96" y1="2841.21" x2="6698.48" y2="2841.21" gradientUnits="userSpaceOnUse">
<stop stop-opacity="0"/>
<stop offset="0.99"/>
</linearGradient>
<clipPath id="clip0">
<rect width="512.42" height="474.58" fill="white"/>
</clipPath>
</defs>
</svg>
