<?xml version="1.0" standalone="no"?>
<!DOCTYPE svg PUBLIC "-//W3C//DTD SVG 20010904//EN"
 "http://www.w3.org/TR/2001/REC-SVG-20010904/DTD/svg10.dtd">
<svg version="1.0" xmlns="http://www.w3.org/2000/svg"
 width="700.000000pt" height="700.000000pt" viewBox="0 0 700.000000 700.000000"
 preserveAspectRatio="xMidYMid meet">
<metadata>
Created by potrace 1.11, written by Peter Selinger 2001-2013
</metadata>
<g transform="translate(0.000000,700.000000) scale(0.100000,-0.100000)"
fill="#000000" stroke="none">
<path d="M3278 6995 c-1 -1 -42 -5 -89 -9 -47 -4 -95 -8 -105 -10 -10 -2 -45
-7 -78 -11 -93 -11 -200 -32 -366 -72 -311 -74 -695 -237 -990 -421 -445 -278
-828 -659 -1111 -1107 -79 -123 -184 -320 -233 -435 -16 -36 -35 -78 -42 -95
-54 -120 -153 -432 -180 -570 -2 -11 -10 -54 -19 -95 -29 -147 -36 -200 -52
-370 -15 -165 -8 -592 12 -711 2 -13 6 -46 9 -74 9 -78 23 -156 51 -285 31
-142 109 -393 175 -555 49 -123 173 -370 235 -468 30 -49 55 -90 55 -93 0 -3
4 -10 10 -17 5 -7 46 -64 91 -126 72 -103 179 -239 234 -297 243 -261 429
-421 682 -590 77 -52 145 -94 149 -94 4 0 15 -6 23 -14 28 -26 332 -173 471
-229 247 -98 551 -180 795 -212 22 -2 56 -7 75 -10 193 -27 663 -27 850 1 443
66 758 160 1113 334 179 87 406 224 408 244 4 60 -1 2610 -6 2614 -6 7 -1302
10 -1322 4 -10 -3 -13 -143 -13 -640 0 -349 -2 -638 -6 -641 -3 -3 -151 -6
-330 -6 l-323 -1 2 1561 2 1560 328 0 327 1 0 -41 c0 -22 0 -311 0 -642 l0
-603 38 0 c178 -3 1297 2 1300 4 2 2 4 595 4 1316 l1 1313 -23 17 c-48 36
-237 146 -354 204 -320 163 -688 282 -1021 332 -27 4 -57 9 -65 10 -8 2 -42 6
-76 9 -33 4 -74 8 -90 11 -33 5 -540 14 -546 9z"/>
<path d="M6110 3499 l0 -2334 28 35 c15 19 35 43 45 53 79 80 288 385 386 566
54 99 141 276 141 287 0 2 11 27 24 56 57 127 151 421 182 573 17 81 54 301
59 350 4 33 9 71 11 85 9 49 11 526 3 612 -8 84 -18 172 -24 213 -1 11 -6 43
-10 70 -11 77 -71 340 -98 430 -147 483 -389 924 -709 1295 l-38 44 0 -2335z"/>
</g>
</svg>
